<svg xmlns="http://www.w3.org/2000/svg" width="67.657" height="67.643" viewBox="0 0 67.657 67.643"><g transform="translate(0)"><g transform="translate(0 0)"><path d="M-4270.966-3110.138l-7.034-15.573a6.252,6.252,0,0,1-.709-1.594l.948.224.952.734a2.7,2.7,0,0,0,1.43,1.175c1.107.332,2.6-.3,4.308-1.833l.237-.212,3.47.54,6.349,14.1-6.748-2.188Zm-4.717-13.719,4.965,10.993,2.418-3.492,4.808,1.559-4.8-10.661-2.122-.33C-4272.39-3124.091-4274.16-3123.442-4275.684-3123.857Z" transform="translate(4323.586 3175.662)" fill="#283775"></path><path d="M-4645.9-3564.095c-.2-.16-.107-.353-.042-.542a5.418,5.418,0,0,0-4.145-7.116c-.284-.046-.385-.175-.442-.461a5.434,5.434,0,0,0-7.2-4.116.434.434,0,0,1-.561-.147,5.19,5.19,0,0,0-4.694-1.874c-.4.045-.556-.066-.542-.49.028-.814.013-1.629.006-2.444a5.533,5.533,0,0,0-5.868-5.873q-3.8-.022-7.6.008c-.539.005-.771-.076-.749-.7.049-1.466.012-1.467-1.445-1.467-.837,0-1.674-.024-2.509.01a.55.55,0,0,1-.641-.469,5.422,5.422,0,0,0-9.2-2.156,4.672,4.672,0,0,0-1.2,2.1c-.111.448-.327.535-.736.526-1.143-.023-2.29,0-3.433-.015-.371-.007-.537.105-.485.483a1.28,1.28,0,0,1,0,.2c-.007,1.486-.007,1.486-1.462,1.486-2.289,0-4.578-.015-6.868,0a5.513,5.513,0,0,0-5.763,4.72,8.266,8.266,0,0,0-.057,1.185c0,16.443.02,32.887-.023,49.33a5.65,5.65,0,0,0,4.474,5.784.608.608,0,0,1,.168.094h38.708a6.264,6.264,0,0,0,3.364-1.925,5.9,5.9,0,0,0,1.319-3.968c-.006-2.925.013-5.85-.015-8.774,0-.562.15-.718.7-.66a5.087,5.087,0,0,0,4.464-1.793.575.575,0,0,1,.716-.208,5.4,5.4,0,0,0,7.066-3.96.752.752,0,0,1,.7-.678,5.381,5.381,0,0,0,4.035-6.7,1.031,1.031,0,0,1,.328-1.289,5.909,5.909,0,0,0,1.63-2.938v-1.85A6.332,6.332,0,0,0-4645.9-3564.095Zm-30.23-20.863c2.245,0,4.491,0,6.735,0a3.365,3.365,0,0,1,3.69,3.688c.006,1.189.012,2.377,0,3.566a1.565,1.565,0,0,1-1.76,1.306c-.387-.118-.421-.356-.419-.69.01-1.694-.013-3.39.016-5.084.008-.5-.147-.643-.638-.632-1.453.029-2.906.011-4.358.011-1.431,0-2.861-.015-4.292.008-.427.006-.561-.114-.562-.553C-4677.724-3584.958-4677.74-3584.958-4676.126-3584.958Zm-18.423-2.156c.969.028,1.94-.033,2.905.023.673.04.924-.136.873-.852a3.139,3.139,0,0,1,1.251-2.837,3.09,3.09,0,0,1,3.352-.388,3.034,3.034,0,0,1,1.871,2.735c.079,1.327.07,1.327,1.385,1.327.836,0,1.675.016,2.51-.006.372-.009.5.111.492.486-.015,1.85-.021,3.7,0,5.548.006.453-.2.486-.556.484-2.356-.01-4.712,0-7.067,0s-4.712-.009-7.068.009c-.419,0-.566-.1-.56-.543.025-1.8.028-3.61,0-5.415C-4695.167-3587.04-4694.981-3587.126-4694.549-3587.114Zm-2.706,8.613c.367.353,1.05.114,1.592.115,5.746.009,11.492,0,17.239.019.566,0,.753-.114.735-.717-.046-1.51-.012-1.511,1.477-1.511,1.828,0,3.654.015,5.481-.01.495-.007.706.093.679.645-.046.966-.029,1.937,0,2.905a.554.554,0,0,1-.465.649,5.239,5.239,0,0,0-3.784,4.087.641.641,0,0,1-.571.587,5.361,5.361,0,0,0-4.079,6.938.765.765,0,0,1-.245.945,2.106,2.106,0,0,0-.486.466.51.51,0,0,1-.212.207,5.614,5.614,0,0,0-1,2.56,1.082,1.082,0,0,1-.047.362l-.01.035a1.7,1.7,0,0,0,.022.847c.13.493-.045.589-.51.587-3.633-.017-7.266-.009-10.9-.009-3.281,0-6.562.009-9.841-.01-.476,0-.639.1-.636.609q.031,7.069,0,14.135c0,.471.136.582.592.581q14.7-.019,29.393-.012c.262,0,.587.114.6-.368.008-.282.2-.117.331-.055a3.347,3.347,0,0,0,.884.424c.874.134.978.647.967,1.421-.046,2.927-.03,5.856-.008,8.784,0,.5-.11.676-.65.675q-12.45-.027-24.9,0c-.489,0-.632-.123-.627-.622.026-2.487,0-4.976.024-7.463,0-.524-.146-.667-.666-.663-2.466.026-4.933-.006-7.4.025-.558.007-.688-.155-.686-.7q.027-9.478.012-18.957c0-6.3.008-12.593-.013-18.89,0-.573.131-.745.724-.733,2.09.04,4.182.027,6.273.005.448,0,.622.1.606.579C-4697.371-3579.507-4697.6-3578.832-4697.255-3578.5Zm-3.336,22.522c0-.441.091-.6.572-.6q9.836.023,19.67-.007c.562,0,.718.413,1.061.646.442.3.444.61.3,1.1a5.39,5.39,0,0,0,4.08,6.841c.4.088.481.25.488.611.035,1.679.043,1.679-1.609,1.679h-11.484c-4.137,0-8.273-.008-12.41.011-.5,0-.674-.1-.669-.646C-4700.569-3549.554-4700.575-3552.766-4700.591-3555.979Zm2.151,21.556-4.7-4.7c1.407,0,2.91,0,4.415,0,.241,0,.29.125.29.331C-4698.441-3537.31-4698.439-3535.823-4698.439-3534.422Zm32.737,2.579a3.323,3.323,0,0,1-2.45,3.487,4.224,4.224,0,0,1-1.178.1c-12.131,0-24.262-.02-36.393.025a3.462,3.462,0,0,1-3.607-3.619q.058-24.735,0-49.471a3.446,3.446,0,0,1,3.669-3.644c2.576.04,5.151.017,7.728,0,.405,0,.572.077.576.535.014,1.638.032,1.638-1.589,1.638-2.51,0-5.02.016-7.529-.013-.541-.006-.7.126-.7.688q.031,10.469.014,20.937,0,10.37-.012,20.74a1.539,1.539,0,0,0,.509,1.2q4.247,4.207,8.455,8.451a1.185,1.185,0,0,0,.918.392q14.4-.015,28.8,0c.5,0,.628-.132.626-.625-.021-3.809-.015-7.618-.006-11.426,0-.316-.163-.707.353-.861a.977.977,0,0,1,1.143.229,2.154,2.154,0,0,1,.69,1.789C-4665.716-3538.141-4665.692-3534.992-4665.7-3531.844Zm17.4-24.917c-.959.417-.986.457-.337,1.276a3.272,3.272,0,0,1-1.789,5.348,4.5,4.5,0,0,1-1.835-.044c-.368-.074-.507.023-.484.432a7.007,7.007,0,0,1,.06,1.771,3.238,3.238,0,0,1-4.943,2.192c-.426-.266-.826-.573-1.272-.884-.2.435-.376.835-.566,1.229a3.139,3.139,0,0,1-2.987,1.92,3.169,3.169,0,0,1-2.942-1.9c-.2-.4-.243-1.058-.641-1.135-.3-.057-.7.45-1.074.687a3.173,3.173,0,0,1-3.491.148,3.1,3.1,0,0,1-1.6-3.1c.027-.436.221-1,.02-1.274-.248-.338-.812.007-1.241.023a3.233,3.233,0,0,1-3.193-1.69,3.2,3.2,0,0,1,.336-3.647c.664-.918.662-.93-.377-1.4a3.186,3.186,0,0,1-2.1-3.06,3.187,3.187,0,0,1,2.108-3.057c1.037-.465,1.038-.477.372-1.4a3.2,3.2,0,0,1-.333-3.648,3.168,3.168,0,0,1,3.2-1.671,7.1,7.1,0,0,1,.851.1c.388.071.516-.048.44-.451a6.932,6.932,0,0,1-.079-1.052,3.086,3.086,0,0,1,1.549-2.936,3.2,3.2,0,0,1,3.327-.025c.478.255.9.932,1.341.8.345-.106.467-.878.727-1.333a3.1,3.1,0,0,1,2.811-1.668,3.087,3.087,0,0,1,2.86,1.692c.251.459.457.946.7,1.454.423-.293.808-.585,1.215-.839a3.124,3.124,0,0,1,3.543-.029,3.129,3.129,0,0,1,1.462,3.231c-.141,1.163-.148,1.167,1,1.063a3.253,3.253,0,0,1,3.41,1.635,3.219,3.219,0,0,1-.375,3.755c-.625.839-.619.864.34,1.279a3.208,3.208,0,0,1,2.19,3.134A3.208,3.208,0,0,1-4648.3-3556.761Z" transform="translate(4711.541 3593.687)" fill="#283775"></path><path d="M-4605.153-3412.478a5.613,5.613,0,0,0-1,2.56c-.022-.261-.236-.332-.67-.331-6.782.021-13.563.015-20.344.015-.177,0-.353-.008-.529,0-.237.012-.337-.068-.37-.329-.225-1.752-.133-1.87,1.579-1.894a.431.431,0,0,1,.066,0c.394.058.55-.092.533-.506-.028-.726-.007-1.454-.007-2.18,0-1.753,0-1.739,1.74-1.686.4.012.475.159.466.509-.021.748-.007,1.5-.007,2.245,0,1.672,0,1.657,1.655,1.628.409-.007.526-.135.521-.53-.019-1.476-.007-2.95-.007-4.425,0-1.63,0-1.615,1.642-1.6.421,0,.571.113.563.554-.025,1.519-.009,3.039-.009,4.558,0,1.435,0,1.4,1.445,1.449.65.024.744-.221.741-.785-.022-3.589-.012-7.178-.012-10.767,0-1.558,0-1.525,1.536-1.566.594-.016.667.206.665.717-.02,3.633-.01,7.266-.01,10.9,0,1.5,0,1.472,1.527,1.5.523.01.667-.144.663-.66-.024-2.906-.011-5.812-.011-8.719,0-1.557,0-1.529,1.559-1.549.56-.007.639.208.635.69-.019,2.884-.009,5.768-.009,8.653,0,1.613,0,1.593,1.639,1.585.454,0,.553-.158.549-.57-.016-1.916-.006-3.831-.006-5.746,0-1.345,0-1.311,1.352-1.358.645-.023.868.12.851.817-.052,2.09-.021,4.183-.013,6.275,0,.195-.12.522.193.543C-4605.754-3412.466-4605.411-3412.344-4605.153-3412.478Z" transform="translate(4636.797 3442.99)" fill="#fe4947"></path><path d="M-4532.327-3086.75c-3.412,0-6.824-.011-10.235.011-.519,0-.726-.082-.712-.666.037-1.563.007-1.564,1.595-1.564q9.741,0,19.479-.011c.572,0,.81.1.791.743-.044,1.485-.009,1.487-1.475,1.487Z" transform="translate(4560.721 3141.31)" fill="#6692cc"></path><path d="M-4534.525-3044.7c-2.706,0-5.412-.01-8.119.011-.46,0-.592-.118-.59-.584.008-1.643-.01-1.643,1.645-1.643,5.038,0,10.077.01,15.115-.014.585,0,.746.152.733.733-.035,1.5-.006,1.5-1.523,1.5Z" transform="translate(4560.684 3103.617)" fill="#6692cc"></path><path d="M-4353.616-3045.708c0-1.085,0-1.085,1.071-1.085,1.114,0,1.114,0,1.114,1.112s0,1.1-1.108,1.1C-4353.616-3044.576-4353.616-3044.576-4353.616-3045.708Z" transform="translate(4390.727 3103.497)" fill="#6692cc"></path><path d="M-4343.336-3385.31h-.016a12.119,12.119,0,0,0-8.621,3.6,12.124,12.124,0,0,0-3.567,8.635,12.162,12.162,0,0,0,3.625,8.671,12.1,12.1,0,0,0,8.571,3.537h.082a12.149,12.149,0,0,0,8.587-3.634,12.07,12.07,0,0,0,3.555-8.6A12.258,12.258,0,0,0-4343.336-3385.31Zm-.013,21.8h-.021a9.611,9.611,0,0,1-9.569-9.579,9.485,9.485,0,0,1,2.806-6.77,9.554,9.554,0,0,1,6.8-2.817h.022a9.611,9.611,0,0,1,9.581,9.578,9.5,9.5,0,0,1-2.812,6.768A9.574,9.574,0,0,1-4343.349-3363.507Z" transform="translate(4392.452 3406.916)" fill="#93aeda"></path><g transform="translate(39.098 23.827)"><path d="M-4322.616-3361.88a9.807,9.807,0,0,0-9.834,9.794,9.806,9.806,0,0,0,9.776,9.787,9.824,9.824,0,0,0,9.847-9.8A9.827,9.827,0,0,0-4322.616-3361.88Zm6.769,16.553a9.57,9.57,0,0,1-6.805,2.82h-.021a9.611,9.611,0,0,1-9.569-9.58,9.485,9.485,0,0,1,2.805-6.77,9.556,9.556,0,0,1,6.8-2.817h.021a9.612,9.612,0,0,1,9.582,9.578A9.5,9.5,0,0,1-4315.848-3345.327Z" transform="translate(4332.658 3362.087)" fill="#4d4e4e"></path><path d="M-4324.445-3343.884h-.021a10.027,10.027,0,0,1-9.983-9.994,9.9,9.9,0,0,1,2.928-7.064,9.969,9.969,0,0,1,7.093-2.938h.021a10.026,10.026,0,0,1,10,9.993h0a9.908,9.908,0,0,1-2.935,7.061A9.98,9.98,0,0,1-4324.445-3343.884Zm.016-19.581a9.555,9.555,0,0,0-6.8,2.817,9.49,9.49,0,0,0-2.806,6.77,9.611,9.611,0,0,0,9.569,9.58h.021a9.568,9.568,0,0,0,6.805-2.82,9.495,9.495,0,0,0,2.813-6.767h0a9.611,9.611,0,0,0-9.582-9.579Z" transform="translate(4334.45 3363.88)" fill="#93aeda"></path></g><path d="M-4530.555-3508.349c0,1.059,0,1.059-1.093,1.059-1.125,0-1.125,0-1.125-1.1s0-1.113,1.1-1.113S-4530.555-3509.506-4530.555-3508.349Z" transform="translate(4551.308 3518.234)" fill="#0f2b62"></path><path d="M-4447.483-3507.29c-1.134,0-1.134,0-1.134-1.161,0-1.055,0-1.055,1.028-1.055,1.187,0,1.187,0,1.187,1.215C-4446.4-3507.29-4446.4-3507.29-4447.483-3507.29Z" transform="translate(4475.878 3518.234)" fill="#0f2b62"></path><path d="M-4264.292-3336.567c-.421.038-.91.075-1.16-.638-.156-.444-.676-.523-1.144-.387a.951.951,0,0,0-.726.912.981.981,0,0,0,.623,1.054,2.52,2.52,0,0,0,.706.152,3.253,3.253,0,0,1,2.916,2.551,3.2,3.2,0,0,1-1.611,3.524.747.747,0,0,0-.492.866.851.851,0,0,1,0,.132c0,1.734,0,1.726-1.759,1.651-.327-.014-.5-.088-.464-.446.016-.152-.011-.309,0-.462a1.776,1.776,0,0,0-.955-2.094,2.549,2.549,0,0,1-1.163-1.917c-.073-.378-.015-.652.485-.591a5.318,5.318,0,0,0,.857,0c.448-.018.82-.037,1.006.551.155.488.654.6,1.161.486a.961.961,0,0,0,.776-.948.982.982,0,0,0-.719-1.058,3.253,3.253,0,0,0-.646-.124,3.284,3.284,0,0,1-2.9-2.571,3.194,3.194,0,0,1,1.531-3.443.89.89,0,0,0,.567-1.027.424.424,0,0,1,0-.066c0-1.8.022-1.814,1.87-1.613.244.027.367.092.351.348-.009.154.011.309,0,.462-.076.916-.06,1.718.991,2.2a2.386,2.386,0,0,1,1.1,1.733c.162.686.1.75-.614.755Z" transform="translate(4315.392 3368.235)" fill="#283775"></path></g><path d="M-4414.934-3305.99l0,.009-1.773,3.944c.008-.12.02-.237.032-.35s.031-.246.048-.362a5.616,5.616,0,0,1,1-2.56A2.683,2.683,0,0,1-4414.934-3305.99Z" transform="translate(4447.279 3335.819)" fill="#0f2b62"></path></g></svg>