<svg xmlns="http://www.w3.org/2000/svg" width="59.444" height="71.615" viewBox="0 0 59.444 71.615"><g transform="translate(0)"><g transform="translate(0 16.175)"><g transform="translate(11.213)"><path d="M-3785.465-3462.137a8.4,8.4,0,0,1-5.129-1.878,13.809,13.809,0,0,1-5.329-8.585.369.369,0,0,0-.033-.1,8.259,8.259,0,0,1-1.119-4.834,2.109,2.109,0,0,1,.478-1.3c-.009-.045-.021-.1-.029-.127a11.522,11.522,0,0,1-.224-5.454c.847-3.458,3.87-7.435,8.516-8.05.034-.016.068-.031.1-.044l.165-.065h2.4l.121.033c.423.116.858.229,1.279.338.977.254,1.988.517,2.974.85a13.051,13.051,0,0,1,4.5,2.485,8.26,8.26,0,0,1,2.746,8.33c-.067.346-.155.678-.24,1-.066.25-.128.488-.18.723,0,.02.014.052.03.1.038.115.1.249.164.39a3.211,3.211,0,0,1,.364,1.28,7.5,7.5,0,0,1-1.094,4.348c-.012.033-.028.1-.04.152l-.017.071a14.736,14.736,0,0,1-5.248,8.433A8.344,8.344,0,0,1-3785.465-3462.137Zm-9.722-15.475a.473.473,0,0,0-.022.123,6.268,6.268,0,0,0,.824,3.775,2.192,2.192,0,0,1,.3.763,11.994,11.994,0,0,0,4.631,7.455,6.1,6.1,0,0,0,8-.022,12.94,12.94,0,0,0,4.585-7.413l.014-.058a2.166,2.166,0,0,1,.28-.716,5.616,5.616,0,0,0,.8-3.313,2.055,2.055,0,0,0-.2-.54,5.992,5.992,0,0,1-.235-.572,1.948,1.948,0,0,1-.1-1.013c.063-.3.14-.594.215-.877.081-.306.157-.6.214-.883a6.428,6.428,0,0,0-2.141-6.564,11.226,11.226,0,0,0-3.87-2.123c-.923-.312-1.9-.566-2.846-.812-.387-.1-.786-.2-1.182-.312h-1.771a1.291,1.291,0,0,1-.32.084c-3.821.465-6.319,3.774-7.024,6.653a9.838,9.838,0,0,0,.227,4.578A1.778,1.778,0,0,1-3795.187-3477.612Zm.008-.021Z" transform="translate(3797.09 3492.579)" fill="#283775"></path></g><g transform="translate(0 27.274)"><path d="M-3883.365-3201.365a95.173,95.173,0,0,1-11.114-.656,45.531,45.531,0,0,1-8.285-1.684,3.224,3.224,0,0,1-2.436-3.165c-.048-.948-.047-1.967,0-3.115a35.992,35.992,0,0,1,1.052-7.737,19.02,19.02,0,0,1,2.649-6.106,7.652,7.652,0,0,1,3.935-2.738l.4-.14a29.79,29.79,0,0,0,6.11-2.645,1.475,1.475,0,0,1,1.326-.044,2.2,2.2,0,0,1,1.357,2.333c-.077,1.375-.087,2.788-.1,4.155,0,.361,0,.722-.009,1.083a1.4,1.4,0,0,0,.068.477c1.606,4.3,3.246,8.674,4.832,12.9l1.059,2.824c.016.042.03.085.044.128.006.019.012.038.019.057.014.036.027.065.038.087a.91.91,0,0,0,.041-.095q.582-1.548,1.159-3.1.353-.942.7-1.884l.947-2.529c1.027-2.74,2.089-5.574,3.125-8.363a1.373,1.373,0,0,0,.082-.474l0-.327c-.019-1.79-.038-3.641-.1-5.455a1.714,1.714,0,0,1,1.076-1.656c.06-.031.122-.064.154-.085a1.592,1.592,0,0,1,1.636.08,26.563,26.563,0,0,0,5.826,2.488,8.629,8.629,0,0,1,5.586,4.882,24.927,24.927,0,0,1,2.117,7.305c.223,1.817.382,3.746.488,5.9a12.985,12.985,0,0,1-.253,2.766l0,.017a2.53,2.53,0,0,1-1.832,2.022,38.25,38.25,0,0,1-7.921,1.737,98.494,98.494,0,0,1-13.089.754Zm-6.959-26.242a33.025,33.025,0,0,1-6.221,2.663l-.4.139a5.732,5.732,0,0,0-3.014,2.036,17.23,17.23,0,0,0-2.381,5.523,34.266,34.266,0,0,0-.992,7.342c-.047,1.089-.049,2.051,0,2.939a1.4,1.4,0,0,0,1.128,1.478,43.693,43.693,0,0,0,7.948,1.612,93.2,93.2,0,0,0,11.58.641h.01a96.872,96.872,0,0,0,12.849-.739,36.487,36.487,0,0,0,7.543-1.648c.546-.191.586-.434.607-.564l0-.017a11.653,11.653,0,0,0,.23-2.37c-.1-2.1-.259-3.988-.477-5.76a23.093,23.093,0,0,0-1.965-6.764,6.769,6.769,0,0,0-4.445-3.87,28.521,28.521,0,0,1-6.159-2.627l-.034.017-.072.038c.061,1.8.08,3.631.1,5.4l0,.326a3.227,3.227,0,0,1-.2,1.145c-1.038,2.792-2.1,5.626-3.127,8.368l-.947,2.529-.7,1.883q-.579,1.551-1.161,3.1a1.851,1.851,0,0,1-1.768,1.341,1.842,1.842,0,0,1-1.795-1.309c-.02-.051-.037-.1-.054-.154-.006-.019-.012-.037-.018-.055l-1.06-2.824c-1.586-4.229-3.227-8.6-4.833-12.9a3.231,3.231,0,0,1-.186-1.148q.005-.538.009-1.077c.01-1.389.019-2.826.1-4.246C-3890.214-3227.439-3890.243-3227.542-3890.324-3227.607Zm7.933,22.292Zm-7.67-22.452Z" transform="translate(3905.235 3229.532)" fill="#283775"></path></g><g transform="translate(20.063 31.122)"><path d="M-3709.4-3188.835l-2.329-3.581a8.9,8.9,0,0,0,5.467.088l-2.3,3.527c.62.679,1.184,1.321,1.777,1.935a.727.727,0,0,1,.246.719c-.725,4.321-1.424,8.646-2.143,12.969-.028.169-.2.314-.3.471-.1-.148-.25-.286-.277-.445q-1.085-6.535-2.135-13.075a.82.82,0,0,1,.194-.573C-3710.641-3187.468-3710.05-3188.109-3709.4-3188.835Z" transform="translate(3711.732 3192.416)" fill="#fe4947"></path></g></g><g transform="translate(33.477 0)"><path d="M-3567.206-3622.619h-4.342l-.076-.85c-.018-.2-.037-.4-.055-.6-.046-.49-.094-1-.128-1.5a.441.441,0,0,0-.347-.459c-.739-.28-1.395-.551-2-.829-.3-.137-.407-.087-.565.051-.073.064-.146.125-.219.187l-2.077,1.751-.606-.608-.388-.391c-.185-.186-.367-.37-.55-.552q-.3-.3-.612-.6l-.926-.914.606-.742c.033-.042.063-.079.093-.115l.4-.474c.282-.331.573-.674.854-1.012a.35.35,0,0,0,.072-.441c-.233-.551-.463-1.108-.686-1.647l-.226-.547c-.08-.191-.161-.206-.233-.219-.172-.031-.364-.047-.568-.063l-.213-.018c-.343-.031-.687-.06-1.036-.089l-1.322-.112v-4.292l.778-.131.068-.012a2.117,2.117,0,0,1,.225-.033l.556-.045c.443-.037.9-.075,1.355-.106a.428.428,0,0,0,.424-.332c.285-.744.562-1.412.846-2.041a.4.4,0,0,0-.054-.527l-.167-.2-.087-.1c-.38-.449-.757-.9-1.1-1.305l-.551-.654,3.091-3.1.657.555.473.4c.376.319.766.65,1.154.973a.349.349,0,0,0,.439.066c.722-.309,1.458-.61,2.168-.9.214-.088.225-.161.234-.22.045-.3.071-.61.1-.938.012-.146.024-.291.037-.436.015-.161.029-.325.043-.489q.018-.219.038-.438l.076-.85h4.368l.072.855q.027.322.056.642c.042.47.084.956.116,1.438.017.252.073.361.358.469.726.275,1.383.548,2.006.835.28.129.383.082.538-.049l.389-.329.545-.461.494-.416.819-.687.6.593.9.886,1,.981.619.607-.951,1.125c-.317.375-.635.754-.958,1.13-.144.168-.2.281-.052.583.285.6.556,1.254.808,1.935.128.344.219.387.524.408h0c.5.034,1,.082,1.483.129l.575.054.848.078v4.34l-.849.077-.615.058c-.469.045-.956.091-1.44.125-.316.022-.4.063-.534.423-.232.638-.5,1.274-.784,1.892-.163.348-.126.413.057.63l.779.923,1.107,1.312-3.089,3.1-1.08-.913c-.389-.328-.781-.66-1.176-.991-.2-.166-.268-.206-.6-.054-.643.3-1.291.568-1.926.8-.344.127-.387.219-.408.525-.032.483-.079.969-.124,1.438-.02.206-.039.412-.058.618Zm-2.638-1.866h.936c.037-.387.073-.781.1-1.166a2.282,2.282,0,0,1,1.623-2.149c.588-.218,1.191-.469,1.789-.746a2.235,2.235,0,0,1,2.581.319c.316.265.633.532.947.8l.667-.67,0,0-.78-.925a2.26,2.26,0,0,1-.321-2.623c.265-.568.508-1.154.721-1.74a2.294,2.294,0,0,1,2.159-1.647c.385-.027.78-.062,1.167-.1v-.937c-.387-.037-.781-.073-1.167-.1h0a2.283,2.283,0,0,1-2.148-1.623c-.233-.632-.483-1.232-.744-1.785a2.264,2.264,0,0,1,.323-2.595q.395-.46.782-.922l-.383-.376-.3-.291-.011.01c-.183.154-.363.306-.542.459l-.393.333a2.238,2.238,0,0,1-2.52.317c-.584-.268-1.2-.525-1.887-.785a2.271,2.271,0,0,1-1.56-2.091c-.026-.393-.061-.8-.1-1.192h-.946c0,.027,0,.055-.008.082-.013.14-.024.278-.036.416-.028.345-.057.7-.112,1.066a2.11,2.11,0,0,1-1.363,1.665c-.713.292-1.441.592-2.151.895a2.2,2.2,0,0,1-2.366-.347c-.332-.276-.661-.555-.983-.828l-.67.673.548.649.084.1.177.209a2.237,2.237,0,0,1,.324,2.491c-.27.6-.533,1.232-.8,1.942a2.287,2.287,0,0,1-2.039,1.526c-.413.028-.835.063-1.246.1v.946l.659.057.2.016a7.452,7.452,0,0,1,.753.087,2.139,2.139,0,0,1,1.622,1.339l.228.551c.221.535.449,1.089.678,1.629a2.2,2.2,0,0,1-.353,2.363c-.286.345-.579.69-.863,1.023l.327.323.339.34.767-.647c.063-.053.126-.106.188-.159a2.274,2.274,0,0,1,2.57-.346c.572.261,1.19.517,1.891.782a2.292,2.292,0,0,1,1.547,2.073C-3569.918-3625.3-3569.881-3624.888-3569.844-3624.485Zm.468-3.734h-.018a7.394,7.394,0,0,1-7.368-7.394,7.4,7.4,0,0,1,7.384-7.377h0a7.336,7.336,0,0,1,5.229,2.181,7.32,7.32,0,0,1,2.154,5.226A7.4,7.4,0,0,1-3569.376-3628.219Zm-.013-1.866h.013a5.532,5.532,0,0,0,5.517-5.506,5.466,5.466,0,0,0-1.61-3.9,5.484,5.484,0,0,0-3.907-1.631h0a5.527,5.527,0,0,0-5.518,5.513,5.525,5.525,0,0,0,5.506,5.525Z" transform="translate(3582.36 3648.58)" fill="#283775"></path><g transform="translate(6.325 6.316)"><g transform="translate(0.207 0.207)"><path d="M-3512.908-3585.66a6.466,6.466,0,0,0-6.452,6.445,6.467,6.467,0,0,0,6.437,6.459,6.476,6.476,0,0,0,6.466-6.435A6.467,6.467,0,0,0-3512.908-3585.66Zm.914,8.544c-.208.112-.3.234-.261.459a.387.387,0,0,1,0,.069c0,.919,0,.915-.931.875-.174-.007-.266-.046-.246-.236.008-.081-.006-.164,0-.245a.942.942,0,0,0-.506-1.109,1.351,1.351,0,0,1-.616-1.016c-.039-.2-.009-.345.257-.313a2.764,2.764,0,0,0,.454,0c.237-.009.436-.019.534.292.082.259.346.319.615.257a.507.507,0,0,0,.411-.5.519.519,0,0,0-.38-.561,1.7,1.7,0,0,0-.342-.066,1.739,1.739,0,0,1-1.539-1.362,1.691,1.691,0,0,1,.811-1.824.473.473,0,0,0,.3-.544.205.205,0,0,1,0-.035c0-.954.011-.961.99-.855.13.014.2.049.187.185-.005.082.005.164,0,.246-.041.484-.032.91.524,1.167a1.265,1.265,0,0,1,.585.918c.086.364.052.4-.325.4h-.313c-.224.021-.482.04-.615-.338-.083-.235-.359-.277-.605-.205a.507.507,0,0,0-.386.484.519.519,0,0,0,.331.558,1.336,1.336,0,0,0,.374.081,1.723,1.723,0,0,1,1.545,1.351A1.7,1.7,0,0,1-3511.994-3577.115Z" transform="translate(3519.36 3585.66)" fill="#93aeda"></path></g><path d="M-3514.7-3574.341h-.016a6.667,6.667,0,0,1-6.644-6.667,6.669,6.669,0,0,1,6.658-6.652h0a6.614,6.614,0,0,1,4.715,1.967,6.6,6.6,0,0,1,1.943,4.711A6.675,6.675,0,0,1-3514.7-3574.341Zm0-12.9a6.253,6.253,0,0,0-6.243,6.238,6.252,6.252,0,0,0,6.23,6.252h.015a6.259,6.259,0,0,0,6.243-6.229,6.184,6.184,0,0,0-1.822-4.416,6.2,6.2,0,0,0-4.421-1.846Zm.129,9.961c-.113,0-.245-.005-.4-.012h-.016a.473.473,0,0,1-.361-.138.409.409,0,0,1-.082-.329.768.768,0,0,0,0-.092,1.059,1.059,0,0,1,0-.151c.045-.446,0-.708-.393-.9a1.5,1.5,0,0,1-.727-1.161.5.5,0,0,1,.083-.446.448.448,0,0,1,.4-.113,2.194,2.194,0,0,0,.364,0l.057,0a.622.622,0,0,1,.74.437c.054.171.277.139.37.117a.3.3,0,0,0,.251-.312.313.313,0,0,0-.238-.352,1.544,1.544,0,0,0-.3-.058,1.955,1.955,0,0,1-1.719-1.526,1.9,1.9,0,0,1,.913-2.048c.2-.109.219-.187.2-.33a.284.284,0,0,1,0-.068c0-.517,0-.8.193-.976s.49-.143,1.026-.085c.325.037.382.24.372.4,0,.034,0,.067,0,.1a1.387,1.387,0,0,1,0,.148c-.043.518.005.779.4.962a1.418,1.418,0,0,1,.7,1.06.589.589,0,0,1-.026.51.6.6,0,0,1-.5.146h-.3a.683.683,0,0,1-.82-.477c-.045-.127-.25-.1-.352-.075a.3.3,0,0,0-.237.3.315.315,0,0,0,.205.351,1.175,1.175,0,0,0,.317.065,1.937,1.937,0,0,1,1.725,1.518,1.911,1.911,0,0,1-.958,2.089h0c-.172.093-.171.147-.155.242a.4.4,0,0,1,0,.093v.011c0,.515,0,.774-.178.944A.737.737,0,0,1-3514.573-3577.284Zm-.446-.431.048,0h.016a1.843,1.843,0,0,0,.649-.023,1.831,1.831,0,0,0,.05-.645c0-.012,0-.024,0-.036v-.007a.6.6,0,0,1,.368-.668h0a1.485,1.485,0,0,0,.749-1.646,1.525,1.525,0,0,0-1.365-1.185,1.526,1.526,0,0,1-.433-.1.727.727,0,0,1-.455-.764.712.712,0,0,1,.534-.667.656.656,0,0,1,.859.335c.078.221.173.221.4.2h.33c.067,0,.119,0,.155,0,0-.03-.013-.075-.029-.14-.1-.424-.254-.678-.47-.778a1.18,1.18,0,0,1-.644-1.372.915.915,0,0,0,0-.1c0-.035,0-.069,0-.1h0a1.958,1.958,0,0,0-.7-.019,1.868,1.868,0,0,0-.056.668c0,.005,0,.011,0,.017a.685.685,0,0,1-.407.743,1.483,1.483,0,0,0-.708,1.6,1.541,1.541,0,0,0,1.358,1.2,1.912,1.912,0,0,1,.383.075.725.725,0,0,1,.524.771.718.718,0,0,1-.571.691.667.667,0,0,1-.859-.4c-.049-.153-.081-.158-.325-.148l-.058,0a2.53,2.53,0,0,1-.433-.006l-.037,0a.51.51,0,0,0,.01.071,1.131,1.131,0,0,0,.5.87,1.144,1.144,0,0,1,.62,1.316.736.736,0,0,0,0,.093,1.1,1.1,0,0,1,0,.152Zm.766-.7v0Zm-.767-6.354v0Z" transform="translate(3521.36 3587.66)" fill="#93aeda"></path></g></g><g transform="translate(44.79 8.31)"><path d="M-3470.667-3561.677c-.207.112-.3.234-.261.46a.387.387,0,0,1,0,.069c0,.919,0,.914-.931.875-.174-.007-.266-.047-.246-.236.008-.081-.006-.164,0-.245a.942.942,0,0,0-.506-1.11,1.352,1.352,0,0,1-.616-1.016c-.038-.2-.008-.345.257-.313a2.764,2.764,0,0,0,.454,0c.237-.009.436-.018.534.292.082.259.346.319.615.257a.508.508,0,0,0,.411-.5.519.519,0,0,0-.38-.561,1.747,1.747,0,0,0-.342-.066,1.739,1.739,0,0,1-1.539-1.362,1.691,1.691,0,0,1,.811-1.824.474.474,0,0,0,.3-.544.2.2,0,0,1,0-.034c0-.954.011-.961.99-.855.13.014.195.049.187.185-.005.082.005.164,0,.246-.041.484-.032.91.524,1.167a1.265,1.265,0,0,1,.585.918c.086.364.052.4-.326.4h-.313c-.224.021-.482.04-.615-.338-.083-.235-.359-.277-.605-.205a.506.506,0,0,0-.386.484.519.519,0,0,0,.331.558,1.334,1.334,0,0,0,.374.081,1.723,1.723,0,0,1,1.545,1.351A1.7,1.7,0,0,1-3470.667-3561.677Z" transform="translate(3473.252 3568.435)" fill="#283775"></path></g></g></svg>