<svg xmlns="http://www.w3.org/2000/svg" width="68.817" height="65.115" viewBox="0 0 68.817 65.115"><g transform="translate(0 0)"><g transform="translate(0 0)"><path d="M-3061.3-3406.134c-.067-.527-.156-1.054-.241-1.565s-.177-1.057-.243-1.583c-.122-.974-.3-1.952-.463-2.9a31.087,31.087,0,0,1-.624-5.23q0-.294,0-.588v-.093l-.036-.086a6.734,6.734,0,0,0-1.167-1.884l-.616-.7-.11.53a5.075,5.075,0,0,0-2.409-1.441.276.276,0,0,1-.043-.013.51.51,0,0,1-.006-.092l0-.346-.332-.1a9.354,9.354,0,0,0-1.1-.251l-.482-.08-.053.449c-.845-.162-1.706-.289-2.539-.412a32.351,32.351,0,0,1-4.526-.89,2.11,2.11,0,0,1-1.235-1.625,2.32,2.32,0,0,1,.413-2.181,11.15,11.15,0,0,0,2.043-2.735,8.131,8.131,0,0,0,.428-.928,2.837,2.837,0,0,1,1.181-1.647,1.444,1.444,0,0,0,.594-1.157l.012-.077c.1-.625.237-1.247.368-1.827.031-.136.063-.272.1-.408a5.075,5.075,0,0,0-.216-4.064,1.768,1.768,0,0,1,.027-.236,2.859,2.859,0,0,0,.036-.308c.022-.485.08-.987.137-1.472a10.3,10.3,0,0,0,.011-3.406c-.013-.067-.029-.133-.046-.2l0-.013c-.04-.157-.082-.311-.123-.463a10.562,10.562,0,0,1-.271-1.177,6.779,6.779,0,0,0-.444-1.631,3.766,3.766,0,0,0-.572-.994l-.823-.975v.55l-.052-.044a12.963,12.963,0,0,0-2.193-1.613,1.879,1.879,0,0,0-.448-.152l-.116-.03-.007-.061-.224-.113-.043-.023a.674.674,0,0,0-.4-.328l-.431-.169-.032.08a.891.891,0,0,0-.259-.054.718.718,0,0,1-.2-.05,16.261,16.261,0,0,0-4.943-.794c-2.483-.081-4.979.217-6.415,2.916-.079.148-.225.205-.5.3-.084.03-.171.061-.259.1a4.663,4.663,0,0,0-2.985,4.255,6.627,6.627,0,0,0,.111,1.421,7.5,7.5,0,0,1,.108.991,10.528,10.528,0,0,0,.147,1.376c.17,1.119.318,2.085-.412,3a1.7,1.7,0,0,0-.236,1.125c0,.047,0,.093,0,.136a13.527,13.527,0,0,0,.509,3.121c.14.57.285,1.159.377,1.737a1.5,1.5,0,0,0,.887,1.1c.248.111.337.3.455.711a9.3,9.3,0,0,0,2.287,4.07,2.47,2.47,0,0,1,.617,2.442,2.392,2.392,0,0,1-1.771,1.677c-1.765.415-3.571.8-5.318,1.167q-.985.208-1.971.418a5.557,5.557,0,0,0-4.6,4.607c-.636,3.249-1.156,6.573-1.659,9.786l-.162,1.033a2.207,2.207,0,0,0,.251,1.8,2.282,2.282,0,0,0,1.79.53q9.825,0,19.652,0h19.852a2.154,2.154,0,0,0,1.657-.526A2.143,2.143,0,0,0-3061.3-3406.134Zm-13.025-36.332-.045.45c-.045.46-.092.936-.148,1.4l-.005-.007a11.5,11.5,0,0,1-1.485-3.476l-.035-.113c-.26-.852-.4-1.321-.813-1.6a1.717,1.717,0,0,0-1.013-.236c-.245,0-.521.018-.837.038a16.984,16.984,0,0,1-8.507-1.426,1.4,1.4,0,0,0-1.114-.121,1.412,1.412,0,0,0-.756.838,6.68,6.68,0,0,1-1.952,2.575,3.323,3.323,0,0,0-.858,1.19v-.007a16.78,16.78,0,0,1-.28-3.321,2.548,2.548,0,0,1,1.911-2.356,2.728,2.728,0,0,0,1.6-1.274,3.694,3.694,0,0,1,3.427-1.862,16.066,16.066,0,0,1,5.908.826C-3075.681-3449.652-3073.9-3446.641-3074.323-3442.466Zm-18.192,4.151a.507.507,0,0,1,.3-.117c.678-.107.858-.8.955-1.165l.012-.043a9.775,9.775,0,0,1,2.176-3.624,17.784,17.784,0,0,0,1.564-2.129c.044.014.1.038.145.055l.07.029a19.1,19.1,0,0,0,9.02,1.229c.223-.022.241-.024.352.39a14.852,14.852,0,0,0,1.508,3.812,3.349,3.349,0,0,0,2.316,1.888.416.416,0,0,1,.043.009.927.927,0,0,1-.022.2c-.237,1.26-.5,2.54-.765,3.777l0,.013c0,.006,0,.01,0,.016a2.046,2.046,0,0,0-1.368,1.688,4.369,4.369,0,0,1-.168.517,7.377,7.377,0,0,1-7.038,4.857h0c-3.889-.254-6.248-2.094-7.01-5.467h0c-.011-.05-.021-.1-.032-.151a1.4,1.4,0,0,0-1.23-1.348.666.666,0,0,1-.077-.225q-.073-.357-.148-.715c-.2-.945-.4-1.922-.568-2.884C-3092.528-3437.9-3092.584-3438.217-3092.515-3438.315Zm24.22,18.418a4.015,4.015,0,0,1,3.352,3.44c.437,2.139.762,4.346,1.077,6.48.18,1.22.366,2.482.571,3.72a.94.94,0,0,1,.016.334,1.612,1.612,0,0,1-.459.036c-5.084-.016-10.252-.015-15.251-.013h-4.1l-3.846,0c-5.049,0-10.27-.006-15.4.015a1.406,1.406,0,0,1-.508-.047,1.1,1.1,0,0,1,.025-.44c.3-1.661.575-3.354.841-4.99s.544-3.35.846-5.017a4,4,0,0,1,3.359-3.43q1.274-.272,2.551-.536c1.526-.318,3.105-.646,4.653-1a1.249,1.249,0,0,1,.761.122l.025.009c1.412.514,2.845,1.052,4.23,1.572l.241.09a5.633,5.633,0,0,0,4.22-.052c.438-.178.877-.38,1.3-.575a10.837,10.837,0,0,1,3.311-1.126,9.86,9.86,0,0,1,3.239.438c.5.122,1.009.247,1.517.339q.643.117,1.285.239C-3069.739-3420.156-3069.014-3420.02-3068.295-3419.9Zm-19.34-3.7a5.684,5.684,0,0,0,.219-1.975v-.15h0c0-.038,0-.07,0-.1l.032.013a10.059,10.059,0,0,0,7.819.047l.092-.034c0,.008,0,.016,0,.024a4.46,4.46,0,0,0,.774,3.073c-.229.094-.458.189-.687.284a24.716,24.716,0,0,1-3.868,1.362,4.366,4.366,0,0,1-1.266-.318c-.964-.346-1.763-.641-2.514-.927-.154-.058-.316-.106-.473-.152a2.163,2.163,0,0,1-.709-.291,2.411,2.411,0,0,1,.18-.231A1.984,1.984,0,0,0-3087.635-3423.593Z" transform="translate(3117.952 3469.021)" fill="#283775"></path><path d="M-2869.712-3549.111c-2.144.109-2.144.109-2.144,2.248,0,1.6.005,3.192,0,4.789,0,.149,0,.3,0,.446a7.447,7.447,0,0,0-1.068-1.657,10.492,10.492,0,0,0-3.273-2.5c-.407-.206-.777-.365-1.073-.481a1.34,1.34,0,0,0,.074-.365c.219-2.319.186-2.369-2.152-2.469-1.014-.043-1.21-.381-.667-1.219q2.388-3.68,4.8-7.343c.478-.725.834-.725,1.33.024q2.423,3.657,4.8,7.34C-2868.57-3549.51-2868.778-3549.157-2869.712-3549.111Z" transform="translate(2916.668 3562.649)" fill="#6692cc"></path><path d="M-2774.754-3447.277c-.22.4-.644.267-.994.274-1.978.035-1.979.031-1.977,2.027.011,8.282,0,16.565.039,24.848a6.262,6.262,0,0,0-1.085-1.754,6.966,6.966,0,0,0-3.3-2.021,8.839,8.839,0,0,0-1.04-.239c0-.016,0-.032,0-.05.018-.265.03-.531.03-.8q0-10.327,0-20.652c0-1.351-.011-1.32-1.373-1.372-.563-.022-1.324.333-1.649-.314-.312-.618.351-1.083.658-1.564,1.379-2.156,2.789-4.292,4.19-6.432.69-1.054.942-1.065,1.612-.045q2.3,3.5,4.582,7.009C-2774.85-3448.033-2774.518-3447.71-2774.754-3447.277Z" transform="translate(2832.301 3471.15)" fill="#6692cc"></path><path d="M-2666.6-3349.869c-.217.393-.657.225-1,.232-1.977.041-1.978.033-1.978,2.041q0,9.472,0,18.944c0,1.353,0,1.355-1.389,1.359q-1.3,0-2.593,0c-1.335,0-1.341-.005-1.342-1.3q0-4.935,0-9.871c0-3.291-.031-6.582.018-9.872.014-.975-.24-1.393-1.282-1.317-.588.042-1.439.358-1.754-.261-.327-.643.419-1.175.763-1.711,1.382-2.151,2.784-4.289,4.188-6.426.552-.84.869-.831,1.429.02q2.325,3.538,4.644,7.079C-2666.679-3350.624-2666.367-3350.284-2666.6-3349.869Z" transform="translate(2735.333 3383.81)" fill="#6692cc"></path><path d="M-3217.528-3598c1.359-2.42,4.593-1.7,5.877-.11a1.981,1.981,0,0,0,.827.6,3.216,3.216,0,0,1,2.058,2.335,1.285,1.285,0,0,0,.493.689,3.094,3.094,0,0,1,1.176,2.867.889.889,0,0,0,.284.725,3.241,3.241,0,0,1,.722,3.438.927.927,0,0,0,.063.779,3.324,3.324,0,0,1-.134,3.423,1.432,1.432,0,0,0-.2,1.093,3.085,3.085,0,0,1-.437,2.281,1.061,1.061,0,0,0-.213.7,2.791,2.791,0,0,1-2.015,3.323,8.051,8.051,0,0,0-3.164,1.617,3.714,3.714,0,0,1-5.127-.713c-.177-.27-.277-.245-.441.009-1.176,1.809-4.331,1.838-5.763.2a2.427,2.427,0,0,0-1.644-.853,3.526,3.526,0,0,1-2.266-1.168,2.527,2.527,0,0,1-.667-2.136,1.65,1.65,0,0,0-.232-1.1,2.943,2.943,0,0,1-.365-2.23,1.085,1.085,0,0,0-.141-.885,3.391,3.391,0,0,1-.179-3.623.879.879,0,0,0,.033-.723,3.285,3.285,0,0,1,.739-3.439.96.96,0,0,0,.267-.792,3.114,3.114,0,0,1,1.287-2.879,1.086,1.086,0,0,0,.376-.627,3.314,3.314,0,0,1,2.137-2.341,2.035,2.035,0,0,0,.769-.586,4.045,4.045,0,0,1,4.031-1.315,2.408,2.408,0,0,1,1.6,1.148C-3217.714-3598.188-3217.7-3598.028-3217.528-3598Zm-4.82,7.461c-.116.588.047.889.742.772.545-.093.6.441.788.776a.6.6,0,0,1-.113.832c-.422.35-.379.644.061.932a1.315,1.315,0,0,1,.3.272c.254.316.475.257.679-.046.274-.407.616-.411,1.06-.277.467.141.775.352.738.866-.041.553.276.6.689.528s1.027.12.88-.67c-.1-.527.251-.694.635-.883s.7-.236.988.107c.317.384.58.362.85-.043a1.586,1.586,0,0,1,.309-.344c.3-.248.281-.453-.033-.677a.754.754,0,0,1-.312-.995c.177-.469.324-.859.937-.795.345.037.548-.116.491-.512-.035-.247-.022-.5-.041-.751a.294.294,0,0,0-.383-.308c-.411.057-.773.078-1.022-.4-.281-.543-.383-.994.157-1.419.234-.184.152-.356-.048-.515a2.438,2.438,0,0,1-.386-.349c-.321-.4-.6-.4-.893.035-.324.48-.738.225-1.142.114a.645.645,0,0,1-.543-.758c.051-.507-.206-.657-.658-.576-.4.073-1.04-.162-.9.647.114.646-.4.737-.789.964s-.65.045-.922-.205c-.121-.111-.274-.352-.415-.239a3.879,3.879,0,0,0-.868.917c-.182.29.209.406.371.555.376.346.2.693.081,1.062-.109.331-.238.624-.663.588C-3222.326-3591.4-3222.555-3591.146-3222.347-3590.544Z" transform="translate(3229.613 3599.727)" fill="#283775"></path><path d="M-3215.723-3574.708a4.294,4.294,0,0,1-.613-.044,3.485,3.485,0,0,1-2.453-1.457.581.581,0,0,0-.088-.112.673.673,0,0,0-.092.121,3.443,3.443,0,0,1-2.71,1.453,4.045,4.045,0,0,1-3.3-1.237,2.282,2.282,0,0,0-1.545-.8,3.668,3.668,0,0,1-2.364-1.218,2.686,2.686,0,0,1-.706-2.262,1.49,1.49,0,0,0-.213-1,3.1,3.1,0,0,1-.381-2.345.929.929,0,0,0-.122-.765,3.546,3.546,0,0,1-.185-3.779.724.724,0,0,0,.022-.6,3.438,3.438,0,0,1,.773-3.592.807.807,0,0,0,.226-.672,3.268,3.268,0,0,1,1.346-3.015.93.93,0,0,0,.321-.545,3.458,3.458,0,0,1,2.232-2.447,1.882,1.882,0,0,0,.71-.546,4.209,4.209,0,0,1,4.177-1.361,2.572,2.572,0,0,1,1.7,1.219.879.879,0,0,1,.054.107l.019.041a3.084,3.084,0,0,1,2.444-1.484,4.393,4.393,0,0,1,3.6,1.5,1.831,1.831,0,0,0,.765.557,3.368,3.368,0,0,1,2.151,2.445,1.142,1.142,0,0,0,.443.606,3.25,3.25,0,0,1,1.229,3,.739.739,0,0,0,.246.6,3.4,3.4,0,0,1,.751,3.593.772.772,0,0,0,.055.656,3.48,3.48,0,0,1-.139,3.574,1.282,1.282,0,0,0-.179.983,3.254,3.254,0,0,1-.458,2.393.9.9,0,0,0-.19.6,2.931,2.931,0,0,1-2.128,3.489,7.9,7.9,0,0,0-3.106,1.585A3.579,3.579,0,0,1-3215.723-3574.708Zm-3.155-1.933c.156,0,.264.132.349.262a3.176,3.176,0,0,0,2.238,1.32,3.449,3.449,0,0,0,2.659-.639,8.192,8.192,0,0,1,3.222-1.648,2.646,2.646,0,0,0,1.9-3.157,1.219,1.219,0,0,1,.236-.8,2.912,2.912,0,0,0,.417-2.168,1.584,1.584,0,0,1,.218-1.2,3.186,3.186,0,0,0,.128-3.272,1.087,1.087,0,0,1-.071-.9,3.073,3.073,0,0,0-.693-3.283,1.039,1.039,0,0,1-.321-.847,2.919,2.919,0,0,0-1.122-2.729,1.435,1.435,0,0,1-.543-.773,3.072,3.072,0,0,0-1.965-2.226,2.128,2.128,0,0,1-.889-.649,4.067,4.067,0,0,0-3.333-1.387,2.794,2.794,0,0,0-2.287,1.475l-.052.092-.1-.014a.42.42,0,0,1-.33-.292.618.618,0,0,0-.035-.071,2.246,2.246,0,0,0-1.5-1.078,3.87,3.87,0,0,0-3.884,1.27,2.191,2.191,0,0,1-.827.625,3.162,3.162,0,0,0-2.042,2.236,1.246,1.246,0,0,1-.43.71,2.974,2.974,0,0,0-1.228,2.742,1.108,1.108,0,0,1-.308.911,3.146,3.146,0,0,0-.7,3.286,1.044,1.044,0,0,1-.043.843,3.253,3.253,0,0,0,.172,3.467,1.235,1.235,0,0,1,.161,1.007,2.8,2.8,0,0,0,.349,2.115,1.805,1.805,0,0,1,.251,1.2,2.357,2.357,0,0,0,.628,2.01,3.367,3.367,0,0,0,2.169,1.118,2.577,2.577,0,0,1,1.743.906,3.728,3.728,0,0,0,3.044,1.131,3.136,3.136,0,0,0,2.471-1.313c.092-.141.2-.271.353-.271Zm-.126-10.407a.6.6,0,0,1-.415-.135.678.678,0,0,1-.171-.586c.027-.368-.143-.56-.628-.706-.461-.139-.685-.085-.887.215a.609.609,0,0,1-.461.325.588.588,0,0,1-.468-.268,1.151,1.151,0,0,0-.263-.24.776.776,0,0,1-.424-.573.76.76,0,0,1,.35-.608.438.438,0,0,0,.077-.635,2.5,2.5,0,0,1-.125-.267c-.133-.318-.216-.482-.5-.433a.862.862,0,0,1-.8-.148.867.867,0,0,1-.133-.767.783.783,0,0,1,.042-.748.808.808,0,0,1,.755-.22c.287.024.383-.122.5-.482l.038-.11c.121-.348.177-.556-.075-.788a1.1,1.1,0,0,0-.13-.092c-.158-.1-.486-.311-.267-.66a3.926,3.926,0,0,1,.9-.955c.224-.18.44.056.544.17.026.028.05.055.073.076.283.26.457.348.739.185.077-.044.157-.083.234-.121.363-.177.549-.288.48-.681a.736.736,0,0,1,.1-.618.809.809,0,0,1,.656-.194,1.675,1.675,0,0,0,.271-.015.754.754,0,0,1,.669.121.712.712,0,0,1,.171.623.5.5,0,0,0,.429.593c.07.019.139.042.209.065.368.123.568.173.763-.116a.745.745,0,0,1,.553-.4.747.747,0,0,1,.589.354,2,2,0,0,0,.318.29l.044.035a.538.538,0,0,1,.249.409.452.452,0,0,1-.2.351c-.447.352-.385.7-.115,1.226.2.385.458.379.863.322a.5.5,0,0,1,.395.084.5.5,0,0,1,.165.366c.008.1.01.206.012.305a3.734,3.734,0,0,0,.027.436.616.616,0,0,1-.129.54.614.614,0,0,1-.533.149c-.473-.05-.585.19-.775.7a.6.6,0,0,0,.257.813.613.613,0,0,1,.313.457.6.6,0,0,1-.271.467,1.429,1.429,0,0,0-.279.31.716.716,0,0,1-.53.387.717.717,0,0,1-.569-.331c-.2-.238-.413-.256-.8-.066-.415.2-.623.325-.551.714a.74.74,0,0,1-.09.618.83.83,0,0,1-.661.215,1.963,1.963,0,0,0-.255.02A1.666,1.666,0,0,1-3219-3587.049Zm-1.61-1.81a1.7,1.7,0,0,1,.486.085c.42.127.9.358.848,1.026a.444.444,0,0,0,.07.333c.067.061.21.071.437.031a2.188,2.188,0,0,1,.3-.024c.177-.006.361-.013.429-.1a.489.489,0,0,0,.027-.367c-.118-.639.323-.855.712-1.046a.885.885,0,0,1,1.185.143c.085.1.208.225.313.218s.214-.138.287-.248a1.755,1.755,0,0,1,.34-.378c.1-.085.16-.162.158-.216s-.067-.132-.182-.214a.9.9,0,0,1-.368-1.176c.18-.478.365-.972,1.1-.9a.353.353,0,0,0,.276-.055.358.358,0,0,0,.045-.28,4.048,4.048,0,0,1-.03-.472c0-.1,0-.195-.012-.29a.219.219,0,0,0-.05-.147.221.221,0,0,0-.156-.018.974.974,0,0,1-1.182-.488c-.277-.538-.445-1.105.2-1.613.052-.041.083-.081.083-.107s-.01-.067-.132-.165l-.044-.035a2.261,2.261,0,0,1-.366-.338c-.09-.111-.224-.242-.334-.238s-.23.145-.309.262c-.337.5-.771.354-1.12.238-.064-.021-.129-.043-.193-.061a.8.8,0,0,1-.656-.924.467.467,0,0,0-.073-.363.517.517,0,0,0-.4-.044,1.879,1.879,0,0,1-.325.02c-.173,0-.352,0-.419.082a.485.485,0,0,0-.029.364c.113.642-.31.849-.65,1.015-.076.037-.147.072-.215.111a.848.848,0,0,1-1.1-.225c-.029-.027-.06-.06-.092-.095a.89.89,0,0,0-.133-.127,3.62,3.62,0,0,0-.821.868c-.04.064-.055.087.172.233a1.257,1.257,0,0,1,.173.125.917.917,0,0,1,.159,1.119c-.012.035-.024.07-.036.106-.092.278-.245.743-.823.694-.248-.021-.415.014-.483.1s-.062.259.02.5l.014.04-.008.041c-.053.269-.039.447.042.53.1.1.339.089.521.058.542-.092.715.319.841.62a2.252,2.252,0,0,0,.108.233.746.746,0,0,1-.149,1.029c-.112.093-.244.229-.238.352s.158.249.284.331a1.477,1.477,0,0,1,.335.305c.081.1.159.156.212.152s.136-.069.216-.188A.858.858,0,0,1-3220.615-3588.858Z" transform="translate(3230.955 3601.069)" fill="#283775"></path><path d="M-3212.525-3571.45A2.379,2.379,0,0,1-3214.2-3569a3.06,3.06,0,0,1-3.386-.658,4.114,4.114,0,0,0-2.4-1.228,2.67,2.67,0,0,1-2.158-1.728.8.8,0,0,1-.1-.447,3.155,3.155,0,0,0-.465-2.359,1.972,1.972,0,0,1-.09-1.42,1.335,1.335,0,0,0-.153-1.109,2.95,2.95,0,0,1-.174-3.275,1.264,1.264,0,0,0,0-1.121,2.5,2.5,0,0,1,.547-2.686,1.784,1.784,0,0,0,.481-1.466,2.407,2.407,0,0,1,1-2.169,1.734,1.734,0,0,0,.665-.981,2.708,2.708,0,0,1,1.731-1.954,2.65,2.65,0,0,0,1.022-.726,3.413,3.413,0,0,1,3.146-1.237,2.337,2.337,0,0,1,1.957,2.426c-.021.274-.174.29-.382.313-.787.086-.89.2-.89.958,0,.241-.007.438-.277.568s-.389-.054-.546-.18c-.584-.471-.853-.448-1.367.124-.168.187-.337.371-.5.558-.517.573-.514.862.049,1.416a.468.468,0,0,1,.169.555c-.093.249-.285.274-.509.291-.763.054-.88.187-.866.962.006.328.01.657.028.985.031.521.264.829.839.8.252-.012.528-.1.69.255s-.125.487-.277.679a.723.723,0,0,0,.085,1.118c.286.26.566.527.861.776a.718.718,0,0,0,1.156-.063c.169-.169.273-.425.611-.306s.31.4.315.661a.667.667,0,0,0,.418.695.385.385,0,0,1,.282.435c0,1.7,0,3.4,0,5.2-.431-.187-.672-.495-1.032-.586-.172-.043-.368-.1-.458.107s0,.354.223.45C-3212.662-3573.805-3212.557-3572.6-3212.525-3571.45Z" transform="translate(3224.312 3594.369)" fill="#fe4947"></path><path d="M-3102.224-3578.427a1.725,1.725,0,0,0-.245,1.383,2.494,2.494,0,0,1-.371,1.935,1.667,1.667,0,0,0-.257,1.043,2.49,2.49,0,0,1-2.164,2.9,4.277,4.277,0,0,0-2.453,1.252,3.051,3.051,0,0,1-3.447.609c-1.279-.5-1.826-1.728-1.549-3.322a2.444,2.444,0,0,1,1.419-2.041c.174-.074.3-.2.224-.4s-.262-.2-.443-.149a3.209,3.209,0,0,0-1.362,1.042c0-1.92-.022-3.655.017-5.388.007-.352.154-.744.711-.707.5.032.72-.294.691-.787-.017-.289-.06-.568.3-.733.34-.159.447.126.624.266a.735.735,0,0,0,1.162-.069q.38-.4.733-.823c.413-.493.4-.755-.045-1.2-.166-.166-.425-.265-.292-.611.123-.319.356-.3.606-.315.645-.047.857-.291.812-.929-.022-.308-.064-.615-.078-.924-.031-.724-.183-.879-.894-.887a.659.659,0,0,0-.116,0,.443.443,0,0,1-.507-.279c-.118-.231.009-.354.133-.506.527-.637.5-.886-.113-1.445l-.386-.351c-.772-.7-.825-.7-1.608-.007a.4.4,0,0,1-.465.113.435.435,0,0,1-.314-.435c.006-.481-.083-.88-.648-1-.243-.054-.15-.264-.126-.433a2.366,2.366,0,0,1,3.286-2.135,3.8,3.8,0,0,1,1.857,1.229,2.1,2.1,0,0,0,.883.624,2.785,2.785,0,0,1,1.817,2.024,1.492,1.492,0,0,0,.549.854,2.6,2.6,0,0,1,1.091,2.418,1.525,1.525,0,0,0,.446,1.259,2.553,2.553,0,0,1,.59,2.733,1.461,1.461,0,0,0,.05,1.232A2.715,2.715,0,0,1-3102.224-3578.427Z" transform="translate(3125.12 3594.644)" fill="#fe4947"></path><g transform="translate(16.881 14.364)"><path d="M-3065.668-3459.037a2.356,2.356,0,0,0-.425-1.409c-.113-.167-.236-.343-.028-.5s.38-.033.53.151a3.628,3.628,0,0,1-.45,4.356c-.154.127-.33.275-.5.106s-.1-.376.076-.549A2.824,2.824,0,0,0-3065.668-3459.037Z" transform="translate(3066.802 3461.181)" fill="#283775"></path><path d="M-3067.728-3457.452a.379.379,0,0,1-.27-.121.454.454,0,0,1-.149-.328.633.633,0,0,1,.225-.443,2.654,2.654,0,0,0,.754-2.043v-.008a2.211,2.211,0,0,0-.4-1.313c-.113-.167-.316-.467.006-.712a.508.508,0,0,1,.745.177,3.768,3.768,0,0,1-.472,4.573A.761.761,0,0,1-3067.728-3457.452Zm.871-2.93a2.973,2.973,0,0,1-.847,2.26.363.363,0,0,0-.132.221.142.142,0,0,0,.055.106c.052.051.09.054.291-.111a3.465,3.465,0,0,0,.433-4.141c-.174-.215-.233-.188-.314-.126-.066.051-.088.068.058.284A2.537,2.537,0,0,1-3066.856-3460.382Z" transform="translate(3068.146 3462.53)" fill="#283775"></path></g><g transform="translate(19.354 10.791)"><path d="M-3041.112-3492.477a2.812,2.812,0,0,1-.241,1.177c-.08.184-.209.363-.438.266-.211-.09-.209-.276-.134-.489a3.436,3.436,0,0,0-.613-3.3c-.125-.176-.409-.347-.142-.574s.451-.014.619.194A4.63,4.63,0,0,1-3041.112-3492.477Z" transform="translate(3042.945 3495.645)" fill="#283775"></path><path d="M-3043.01-3492.2a.477.477,0,0,1-.186-.041c-.183-.078-.37-.26-.219-.684a3.286,3.286,0,0,0-.593-3.159,1.136,1.136,0,0,0-.083-.1.56.56,0,0,1-.2-.4.418.418,0,0,1,.164-.289.47.47,0,0,1,.354-.128.773.773,0,0,1,.487.342,4.73,4.73,0,0,1,.982,2.814v.008a2.98,2.98,0,0,1-.254,1.242C-3042.688-3492.276-3042.863-3492.2-3043.01-3492.2Zm-.8-4.484a.179.179,0,0,0-.113.055c-.04.034-.055.06-.056.072,0,.035.07.115.117.167a1.334,1.334,0,0,1,.106.127,3.577,3.577,0,0,1,.633,3.444c-.084.237-.011.268.048.293s.13.055.234-.185a2.67,2.67,0,0,0,.228-1.109,4.432,4.432,0,0,0-.913-2.635c-.053-.066-.177-.219-.274-.228Z" transform="translate(3044.29 3496.99)" fill="#283775"></path></g><g transform="translate(18.388 18.968)"><path d="M-3050.134-3415.561a2.748,2.748,0,0,1-1.287,2.244c-.2.123-.458.268-.617.035-.2-.287.084-.407.3-.56a2.131,2.131,0,0,0,.973-2.179c-.035-.225-.189-.553.2-.6.342-.043.341.3.4.528A3.094,3.094,0,0,1-3050.134-3415.561Z" transform="translate(3052.26 3416.781)" fill="#283775"></path><path d="M-3053.169-3414.35a.4.4,0,0,1-.342-.191.441.441,0,0,1-.087-.334.654.654,0,0,1,.335-.38l.086-.059a1.97,1.97,0,0,0,.91-2.029c0-.034-.014-.071-.022-.109a.615.615,0,0,1,.029-.5.44.44,0,0,1,.325-.169c.428-.054.5.327.546.531.008.039.016.077.024.112a1.505,1.505,0,0,1,.035.362c0,.061,0,.128.007.2v.021a2.894,2.894,0,0,1-1.359,2.364A1,1,0,0,1-3053.169-3414.35Zm1.313-3.468-.041,0a.168.168,0,0,0-.108.04c-.029.04,0,.168.019.253.01.045.02.089.026.13a2.284,2.284,0,0,1-1.036,2.329c-.031.022-.062.044-.094.065-.085.058-.193.129-.2.181a.158.158,0,0,0,.038.1c.046.067.108.107.406-.079a2.6,2.6,0,0,0,1.213-2.114c0-.074-.005-.141-.007-.2a1.255,1.255,0,0,0-.024-.289c-.01-.04-.02-.084-.028-.129C-3051.742-3417.768-3051.775-3417.818-3051.856-3417.818Z" transform="translate(3053.604 3418.129)" fill="#283775"></path></g><g transform="translate(18.203 5.218)"><path d="M-3051.841-3546.782c0,.1,0,.192,0,.289,0,.171-.056.312-.244.328-.22.019-.3-.12-.307-.323a3.055,3.055,0,0,0-.229-1.122,1.945,1.945,0,0,0-.916-1c-.183-.1-.432-.206-.3-.467.141-.276.393-.167.6-.06A2.59,2.59,0,0,1-3051.841-3546.782Z" transform="translate(3054.031 3549.403)" fill="#283775"></path><path d="M-3053.487-3547.35a.405.405,0,0,1-.279-.1.5.5,0,0,1-.144-.378,2.892,2.892,0,0,0-.218-1.065,1.783,1.783,0,0,0-.845-.918l-.035-.019c-.17-.089-.523-.275-.33-.656a.45.45,0,0,1,.262-.239.756.756,0,0,1,.548.112,2.726,2.726,0,0,1,1.479,2.48v.3c0,.407-.269.474-.386.484Zm-1.456-3.083a.13.13,0,0,0-.038,0c-.011,0-.044.014-.08.084s-.042.114.2.239l.037.02a2.112,2.112,0,0,1,.986,1.074,3.214,3.214,0,0,1,.242,1.179.225.225,0,0,0,.041.152.136.136,0,0,0,.1.018c.046,0,.1-.009.1-.171,0-.067,0-.133,0-.2v-.085a2.437,2.437,0,0,0-1.311-2.217A.743.743,0,0,0-3054.943-3550.433Z" transform="translate(3055.394 3550.744)" fill="#283775"></path></g><g transform="translate(5.378 14.378)"><path d="M-3176.656-3460.893c.032.018.142.043.185.111.111.174.006.324-.089.476a2.843,2.843,0,0,0-.2,2.658,2.261,2.261,0,0,0,.605.9c.148.133.293.294.112.49s-.386.092-.553-.058a2.532,2.532,0,0,1-.7-1.048,3.7,3.7,0,0,1,.161-3.179C-3177.044-3460.7-3176.952-3460.892-3176.656-3460.893Z" transform="translate(3177.732 3461.049)" fill="#283775"></path><path d="M-3177.61-3457.332a.687.687,0,0,1-.441-.213,2.682,2.682,0,0,1-.741-1.112,3.829,3.829,0,0,1,.171-3.307l.012-.021a.648.648,0,0,1,.6-.41h.042l.033.019.019.007a.436.436,0,0,1,.224.157.544.544,0,0,1-.077.624l-.012.019a2.68,2.68,0,0,0-.186,2.52,2.1,2.1,0,0,0,.563.843.607.607,0,0,1,.248.405.417.417,0,0,1-.125.306A.447.447,0,0,1-3177.61-3457.332Zm-.426-4.751c-.159.01-.214.095-.3.25l-.013.022a3.535,3.535,0,0,0-.149,3.051,2.366,2.366,0,0,0,.656.984c.217.2.277.131.335.068a.136.136,0,0,0,.043-.081c0-.061-.106-.153-.145-.188a2.422,2.422,0,0,1-.646-.964,3.007,3.007,0,0,1,.213-2.8l.012-.019c.1-.16.124-.218.078-.29a.347.347,0,0,0-.074-.035Z" transform="translate(3179.083 3462.395)" fill="#283775"></path></g><g transform="translate(2.842 10.792)"><path d="M-3202.046-3492.6a4.237,4.237,0,0,1,.91-2.591c.151-.188.341-.393.58-.221.268.194.06.392-.081.585a3.42,3.42,0,0,0-.643,3.313c.069.192.1.411-.138.494s-.341-.112-.431-.291A2.961,2.961,0,0,1-3202.046-3492.6Z" transform="translate(3202.202 3495.628)" fill="#283775"></path><path d="M-3202.869-3492.191c-.266,0-.4-.271-.464-.4a2.762,2.762,0,0,1-.21-1.226l0-.131v0a4.391,4.391,0,0,1,.944-2.684c.114-.142.417-.52.792-.249a.425.425,0,0,1,.19.28.625.625,0,0,1-.185.454c-.017.023-.035.045-.051.067a3.241,3.241,0,0,0-.623,3.169.744.744,0,0,1,.051.364.409.409,0,0,1-.284.329A.473.473,0,0,1-3202.869-3492.191Zm-.366-1.755,0,.125a2.5,2.5,0,0,0,.178,1.094c.114.229.162.241.239.213s.076-.054.081-.084a.449.449,0,0,0-.037-.211,3.571,3.571,0,0,1,.663-3.456l.056-.074c.055-.073.131-.172.125-.22,0-.02-.026-.046-.065-.074-.079-.057-.151-.077-.367.192A4.084,4.084,0,0,0-3203.235-3493.946Z" transform="translate(3203.546 3496.98)" fill="#283775"></path></g><g transform="translate(3.454 18.96)"><path d="M-3196.134-3415.8c.037-.185.065-.416.131-.635.052-.173.17-.323.382-.258a.3.3,0,0,1,.21.408,2.094,2.094,0,0,0,1.049,2.452c.154.1.319.191.217.4s-.313.211-.5.128a2.375,2.375,0,0,1-1.148-1.174A3.535,3.535,0,0,1-3196.134-3415.8Z" transform="translate(3196.291 3416.861)" fill="#283775"></path><path d="M-3195.775-3414.434a.721.721,0,0,1-.29-.069,2.515,2.515,0,0,1-1.224-1.246,3.682,3.682,0,0,1-.355-1.378l0-.022,0-.022c.01-.052.02-.108.03-.167a4.173,4.173,0,0,1,.1-.483.542.542,0,0,1,.247-.338.425.425,0,0,1,.329-.024.454.454,0,0,1,.316.594,1.936,1.936,0,0,0,.98,2.284l.016.009c.146.092.418.263.259.591A.443.443,0,0,1-3195.775-3414.434Zm-1.558-2.7a3.323,3.323,0,0,0,.322,1.244,2.219,2.219,0,0,0,1.072,1.1c.224.1.274,0,.3-.053s.038-.078-.144-.192l-.016-.01a2.243,2.243,0,0,1-1.117-2.621c.04-.164-.027-.2-.1-.222a.109.109,0,0,0-.092,0,.255.255,0,0,0-.1.153,3.817,3.817,0,0,0-.1.447C-3197.314-3417.231-3197.323-3417.18-3197.333-3417.132Z" transform="translate(3197.646 3418.204)" fill="#283775"></path></g><g transform="translate(3.572 5.212)"><path d="M-3195-3546.789a2.76,2.76,0,0,1,1.311-2.331c.209-.121.485-.305.667-.033.205.307-.1.417-.32.54a2.066,2.066,0,0,0-1.017,1.585c-.015.094-.016.191-.022.287-.017.249,0,.565-.356.533C-3195.05-3546.235-3195-3546.534-3195-3546.789Z" transform="translate(3195.157 3549.45)" fill="#283775"></path><path d="M-3196.036-3547.4l-.061,0c-.409-.036-.406-.406-.4-.626,0-.035,0-.071,0-.106v-.019a2.878,2.878,0,0,1,1.388-2.451l.038-.022c.2-.119.583-.34.836.038a.44.44,0,0,1,.083.356c-.047.187-.233.285-.382.365l-.074.04a1.912,1.912,0,0,0-.94,1.475c-.009.059-.012.121-.016.187,0,.029,0,.058,0,.086l0,.065a.7.7,0,0,1-.17.517A.429.429,0,0,1-3196.036-3547.4Zm-.153-.733c0,.035,0,.071,0,.107,0,.289.027.305.12.313a.178.178,0,0,0,.12-.02c.05-.043.057-.185.064-.3l0-.07c0-.027,0-.054,0-.081a2.066,2.066,0,0,1,.019-.22,2.205,2.205,0,0,1,1.094-1.7l.081-.044c.09-.048.213-.114.226-.166a.167.167,0,0,0-.04-.108c-.068-.1-.138-.107-.42.058l-.039.023A2.59,2.59,0,0,0-3196.189-3548.132Z" transform="translate(3196.5 3550.799)" fill="#283775"></path></g><g transform="translate(9.229 6.08)"><path d="M-3140.439-3538.187a2.687,2.687,0,0,1,2.636-2.746,2.752,2.752,0,0,1,2.776,2.748,2.723,2.723,0,0,1-2.75,2.7A2.669,2.669,0,0,1-3140.439-3538.187Zm2.659-2.126a2.174,2.174,0,0,0-2.091,2.132,2.168,2.168,0,0,0,2.125,2.1,2.127,2.127,0,0,0,2.1-2.162A2.121,2.121,0,0,0-3137.78-3540.313Z" transform="translate(3140.595 3541.089)" fill="#283775"></path><path d="M-3139.09-3536.669h-.034a2.841,2.841,0,0,1-2.816-2.86h0a2.846,2.846,0,0,1,2.788-2.9,2.847,2.847,0,0,1,2.068.837,2.86,2.86,0,0,1,.866,2.067,2.859,2.859,0,0,1-.863,2.035A2.853,2.853,0,0,1-3139.09-3536.669Zm-2.539-2.862a2.5,2.5,0,0,0,2.508,2.551,2.539,2.539,0,0,0,1.823-.734,2.55,2.55,0,0,0,.77-1.814,2.553,2.553,0,0,0-.774-1.845,2.541,2.541,0,0,0-1.843-.747,2.536,2.536,0,0,0-2.483,2.589Zm2.536,2.26a2.328,2.328,0,0,1-2.278-2.25,2.233,2.233,0,0,1,.649-1.577,2.287,2.287,0,0,1,1.6-.714l0,.155,0-.155a2.269,2.269,0,0,1,2.292,2.221,2.26,2.26,0,0,1-.655,1.638,2.23,2.23,0,0,1-1.6.682Zm-.03-4.23a1.978,1.978,0,0,0-1.376.619,1.923,1.923,0,0,0-.562,1.354,2.013,2.013,0,0,0,1.967,1.946h0a1.925,1.925,0,0,0,1.379-.589,1.953,1.953,0,0,0,.566-1.415,1.959,1.959,0,0,0-1.977-1.916Z" transform="translate(3141.939 3542.433)" fill="#283775"></path></g></g><rect width="0.726" height="0.067" transform="translate(48.829 47.067) rotate(-9.406)" fill="#0f2b62"></rect></g></svg>