<svg xmlns="http://www.w3.org/2000/svg" width="47.147" height="67.264" viewBox="0 0 47.147 67.264"><g transform="translate(0 0)"><g transform="translate(0 0)"><path d="M-2320.392-3590.143q5.149,5.136,10.3,10.271a1.532,1.532,0,0,1,.394,1.192q-.011,10.122,0,20.244,0,16.718,0,33.435c0,1.42-.291,1.707-1.731,1.707h-43.3c-1.386,0-1.69-.3-1.69-1.682q0-31.77-.01-63.54a1.51,1.51,0,0,1,.9-1.627Zm-33.849,33.456q0,15.246-.007,30.492c0,.467.008.739.631.738q20.567-.029,41.134,0c.5,0,.612-.148.612-.625q-.018-25.595,0-51.189c0-.552-.2-.631-.676-.628-2.524.019-5.049.009-7.574.009-1.451,0-1.737-.289-1.737-1.76,0-2.5-.022-5.006.015-7.509.009-.636-.177-.792-.8-.791q-15.409.029-30.818,0c-.616,0-.8.131-.8.777Q-2354.223-3571.933-2354.241-3556.687Zm34.632-29.319a.161.161,0,0,0-.037.1c-.006,1.783,0,3.566-.014,5.349,0,.454.265.464.6.463,1.5-.005,3,0,4.5-.006a1.985,1.985,0,0,0,.887-.069Z" transform="translate(2356.637 3590.35)" fill="#283775"></path><path d="M-2313.227-3524.879h-43.3c-1.508,0-1.9-.389-1.9-1.89v-9.8c0-17.612,0-35.824-.01-53.736a1.716,1.716,0,0,1,1.031-1.818l.038-.016h35.261l2.33,2.325q4.014,4,8.031,8.006a1.744,1.744,0,0,1,.455,1.34c-.006,5.458-.005,11.008-.005,16.375v37.3C-2311.288-3525.255-2311.668-3524.879-2313.227-3524.879Zm-44.05-66.849c-.531.235-.739.637-.739,1.419.01,17.912.01,36.124.01,53.736v9.8c0,1.269.208,1.475,1.483,1.475h43.3c1.324,0,1.523-.2,1.523-1.5v-37.3c0-5.367,0-10.917,0-16.375a1.329,1.329,0,0,0-.333-1.045q-4.019-4-8.031-8.007l-2.208-2.2Zm1.863,64.686a.871.871,0,0,1-.647-.2,1,1,0,0,1-.188-.748c.008-8.521.008-17.184.007-25.562v-10.622c0-8.128,0-16.532-.016-24.8a1.061,1.061,0,0,1,.218-.768,1.049,1.049,0,0,1,.786-.216c10.218.02,20.586.02,30.817,0a1.083,1.083,0,0,1,.794.226,1.056,1.056,0,0,1,.215.776c-.027,1.853-.022,3.739-.018,5.563q0,.972,0,1.943c0,1.35.2,1.553,1.53,1.553h1.871c1.869,0,3.8,0,5.7-.01a.934.934,0,0,1,.688.188.855.855,0,0,1,.2.647c-.015,16-.016,32.746,0,51.189a.878.878,0,0,1-.187.646.861.861,0,0,1-.629.187h0c-15.156-.015-28.611-.013-41.134,0Zm.151-62.5c-.27,0-.419.029-.485.094s-.1.217-.1.474c.018,8.267.017,16.671.016,24.8v10.622c0,8.378,0,17.042-.007,25.563,0,.2,0,.388.066.454.035.035.125.078.356.076,12.524-.017,25.979-.019,41.135,0a.528.528,0,0,0,.339-.066.578.578,0,0,0,.065-.353c-.013-18.443-.012-35.188,0-51.19a.547.547,0,0,0-.073-.352.676.676,0,0,0-.393-.067c-1.9.014-3.835.012-5.7.01h-1.871c-1.562,0-1.944-.386-1.945-1.968q0-.971,0-1.942c0-1.825-.009-3.713.018-5.57a.705.705,0,0,0-.1-.478c-.07-.072-.221-.1-.5-.1-10.232.02-20.6.02-30.819,0Zm39.348,7.872c-.08,0-.157,0-.231-.009s-.143-.009-.21-.008c-.819,0-1.652,0-2.458,0-.681,0-1.363,0-2.044,0a.855.855,0,0,1-.639-.172.667.667,0,0,1-.166-.5c.009-1.14.01-2.3.011-3.42q0-.964,0-1.927a.281.281,0,0,1,0-.046l0,0,.007-.017a.308.308,0,0,1,.157-.227l.127-.053.2.193h0l6.046,5.95-.27.126A1.222,1.222,0,0,1-2315.914-3581.669Zm-.433-.431c.076,0,.152,0,.225.009s.156.009.231.008l-5.343-5.258q0,.785,0,1.57c0,1.122,0,2.282-.011,3.424a.317.317,0,0,0,.045.2c.051.051.219.05.343.05.682,0,1.364,0,2.046,0,.8,0,1.636,0,2.455,0Z" transform="translate(2358.43 3592.143)" fill="#283775"></path></g><path d="M-2110.094-3382.816a33.123,33.123,0,0,1,1.1,4.012c.326,1.831.564,3.651-.355,5.411a5.351,5.351,0,0,1-4.77,3.2c-1.5.052-3,.034-4.5.012a1.012,1.012,0,0,1-1.136-.925,1.018,1.018,0,0,1,1.12-1.2c1.24-.024,2.48-.01,3.72-.011,2.785,0,4.37-1.919,4-4.695a26.512,26.512,0,0,0-1.229-5.048c-.168-.493-.319-.664-.738-.187-.444.505-.938.969-1.427,1.433a1.1,1.1,0,0,1-1.62.1,1.108,1.108,0,0,1,.089-1.624q1.472-1.527,2.986-3.013a1.122,1.122,0,0,1,1.25-.291c1.453.51,2.917.989,4.378,1.474.585.194,1.026.521.993,1.2a1.094,1.094,0,0,1-1.54.909C-2108.5-3382.278-2109.215-3382.527-2110.094-3382.816Z" transform="translate(2144.51 3407.118)" fill="#fe4947"></path><path d="M-2233.125-3462.66c.835,0,1.66-.016,2.485,0,.853.021,1.4.535,1.289,1.208a1.021,1.021,0,0,1-1.059.955c-1.5.016-3,.007-4.506.01a1.042,1.042,0,0,1-.972-.652c-.7-1.4-1.392-2.8-2.086-4.2a1.265,1.265,0,0,1-.086-1.129,1.033,1.033,0,0,1,.929-.622,1.055,1.055,0,0,1,1.009.607c.344.654.665,1.32,1,1.979a1.9,1.9,0,0,0,.186.243c.594-1.046,1.087-2.109,1.73-3.092a15.885,15.885,0,0,1,1.86-2.432,5.513,5.513,0,0,1,8.174.082,34.357,34.357,0,0,1,2.4,2.843c.5.659.474,1.236-.056,1.671s-1.1.328-1.634-.317c-.732-.891-1.439-1.8-2.232-2.642a3.382,3.382,0,0,0-5.371.18,22.154,22.154,0,0,0-2.879,4.643A1.186,1.186,0,0,0-2233.125-3462.66Z" transform="translate(2250.628 3484.059)" fill="#fe4947"></path><path d="M-2260.482-3333.67c-.425-.366-.873-.708-1.268-1.1a1.114,1.114,0,0,1-.149-1.67c.477-.482,1.075-.447,1.667.131q1.588,1.55,3.154,3.123a1.135,1.135,0,0,1,.014,1.679q-1.617,1.614-3.255,3.2a1.039,1.039,0,0,1-1.365.208,1.019,1.019,0,0,1-.489-1.176,1.5,1.5,0,0,1,.509-.743c.377-.352.761-.7,1.143-1.043l-.1-.205c-.382,0-.763.008-1.145,0a21.769,21.769,0,0,1-4.1-.168,4.865,4.865,0,0,1-3.845-6.442,11.667,11.667,0,0,1,2.032-3.908,1.135,1.135,0,0,1,1.6-.338,1.081,1.081,0,0,1,.15,1.615,8.843,8.843,0,0,0-1.809,3.85,2.654,2.654,0,0,0,2.341,3.117,35.173,35.173,0,0,0,4.742.115Z" transform="translate(2279.132 3368.227)" fill="#fe4947"></path><g transform="translate(15.588 57.995)"><path d="M-2198.828-3030.8c1.935,0,3.87,0,5.805,0,.854,0,1.354.408,1.353,1.074,0,.649-.52,1.1-1.356,1.1q-5.87.014-11.74,0c-1,0-1.554-.722-1.22-1.507a1.111,1.111,0,0,1,1.158-.667C-2202.828-3030.791-2200.828-3030.8-2198.828-3030.8Z" transform="translate(2206.292 3031.005)" fill="#93aeda"></path><path d="M-2200.851-3030.2c-1.856,0-3.781,0-5.717-.011a1.551,1.551,0,0,1-1.335-.625,1.209,1.209,0,0,1-.075-1.17,1.3,1.3,0,0,1,1.34-.793h.01c1.474.005,2.972,0,4.421,0h1.579v0h1.6q2.1,0,4.206,0c.964,0,1.562.494,1.56,1.282s-.629,1.3-1.562,1.305C-2196.682-3030.2-2198.721-3030.2-2200.851-3030.2Zm-5.788-2.185a.9.9,0,0,0-.958.541.806.806,0,0,0,.04.78,1.149,1.149,0,0,0,.99.439c4.157.017,8.267.011,11.74,0,.708,0,1.148-.343,1.149-.891,0-.779-.8-.865-1.146-.866q-2.1-.005-4.2,0h-3.179c-1.449,0-2.948,0-4.423,0Z" transform="translate(2208.094 3032.798)" fill="#93aeda"></path></g><g transform="translate(16.72 44.6)"><path d="M-2188.071-3157.829c-1.977,0-3.955.01-5.932,0a1.037,1.037,0,0,1-1.165-1.162.953.953,0,0,1,.727-.9,3.151,3.151,0,0,1,.837-.093q5.606-.009,11.211,0a3.853,3.853,0,0,1,.648.049,1.006,1.006,0,0,1,.936,1.114.994.994,0,0,1-1.07.988c-2.064.017-4.128.006-6.192.006Z" transform="translate(2195.38 3160.198)" fill="#93aeda"></path><path d="M-2193.252-3159.411c-.846,0-1.7,0-2.544-.008a1.42,1.42,0,0,1-1.076-.42,1.235,1.235,0,0,1-.294-.968,1.157,1.157,0,0,1,.877-1.08,3.273,3.273,0,0,1,.893-.1c3.96-.006,7.89,0,11.212,0a3.993,3.993,0,0,1,.682.052,1.207,1.207,0,0,1,1.108,1.328,1.2,1.2,0,0,1-1.275,1.185c-1.49.012-3,.01-4.468.008l-1.52,0-.206,0-1.7,0Zm3.754-2.166c-1.909,0-3.9,0-5.9,0a2.876,2.876,0,0,0-.782.085.747.747,0,0,0-.576.717.834.834,0,0,0,.188.653,1.022,1.022,0,0,0,.772.284c1.41.01,2.844.008,4.232.007l1.491,0v0h.207l1.727,0c1.463,0,2.977,0,4.464-.008a.791.791,0,0,0,.865-.791.8.8,0,0,0-.764-.9,3.614,3.614,0,0,0-.613-.045Z" transform="translate(2197.173 3161.991)" fill="#93aeda"></path></g><g transform="translate(20.072 53.541)"><path d="M-2156.24-3071.586c-1.654,0-3.308,0-4.962,0a3.447,3.447,0,0,1-.9-.092.96.96,0,0,1-.729-1.088.983.983,0,0,1,.834-.95,1.776,1.776,0,0,1,.39-.028q5.386,0,10.772-.005a1.165,1.165,0,0,1,1.151.587,1.048,1.048,0,0,1-.748,1.512,8.984,8.984,0,0,1-1.887.065C-2153.628-3071.578-2154.934-3071.586-2156.24-3071.586Z" transform="translate(2163.046 3073.961)" fill="#93aeda"></path><path d="M-2153.122-3073.158c-.157,0-.313,0-.468-.009-.172,0-.351-.01-.524-.008-.926.008-1.867.006-2.777,0h-2.424c-1.207,0-2.454,0-3.682,0a3.642,3.642,0,0,1-.959-.1,1.166,1.166,0,0,1-.88-1.3,1.189,1.189,0,0,1,1-1.138,1.887,1.887,0,0,1,.427-.034h3.336c2.44,0,4.963,0,7.445-.005h.006a1.357,1.357,0,0,1,1.328.7,1.218,1.218,0,0,1,.032,1.088,1.31,1.31,0,0,1-.919.724A4.3,4.3,0,0,1-2153.122-3073.158Zm-.925-.433c.158,0,.316,0,.469.009a5.247,5.247,0,0,0,1.3-.069.9.9,0,0,0,.632-.493.8.8,0,0,0-.023-.72.956.956,0,0,0-.967-.477c-2.482.005-5.006.005-7.446.005h-3.326a1.557,1.557,0,0,0-.344.023.775.775,0,0,0-.674.762.754.754,0,0,0,.578.875,3.254,3.254,0,0,0,.849.083c1.226.006,2.473.005,3.679,0h2.425c.909,0,1.848,0,2.772,0Z" transform="translate(2164.839 3075.754)" fill="#93aeda"></path></g><g transform="translate(13.373 49.082)"><path d="M-2220.857-3114.616q-2.639,0-5.279,0a1.135,1.135,0,0,1-1.251-.714,1.03,1.03,0,0,1,.774-1.386,3.192,3.192,0,0,1,.584-.041q5.213,0,10.427,0c.846,0,1.266.254,1.387.8.167.755-.3,1.323-1.168,1.333-1.825.021-3.65.006-5.474.006Z" transform="translate(2227.66 3116.966)" fill="#93aeda"></path><path d="M-2219.465-3116.2l-1.588,0-1.391,0-.2,0h-1.469q-1.905,0-3.81,0h-.007a1.338,1.338,0,0,1-1.438-.851,1.266,1.266,0,0,1,.083-1.062,1.231,1.231,0,0,1,.847-.6,3.4,3.4,0,0,1,.622-.045c3.718,0,7.069,0,10.428,0,.591,0,1.4.1,1.589.961a1.275,1.275,0,0,1-.212,1.091,1.45,1.45,0,0,1-1.156.494C-2217.932-3116.2-2218.7-3116.2-2219.465-3116.2Zm-3.389-.42h.208l1.595,0c1.271,0,2.585.006,3.877-.009a1.05,1.05,0,0,0,.835-.337.859.859,0,0,0,.132-.743c-.07-.314-.265-.635-1.184-.636-3.359,0-6.71,0-10.427,0a3.03,3.03,0,0,0-.546.038.808.808,0,0,0-.563.4.855.855,0,0,0-.054.716c.151.415.445.577,1.05.577h.006q1.905,0,3.811,0h1.261Z" transform="translate(2229.45 3118.758)" fill="#93aeda"></path></g><g transform="translate(6.673 53.543)"><path d="M-2286.548-3073.736c1.415,0,2.829-.007,4.244,0,.826.005,1.284.394,1.288,1.059a1.078,1.078,0,0,1-1.212,1.087q-4.309.035-8.618,0a1.1,1.1,0,0,1-1.229-1.142c.039-.628.5-1,1.282-1C-2289.377-3073.743-2287.963-3073.736-2286.548-3073.736Z" transform="translate(2292.284 3073.946)" fill="#93aeda"></path><path d="M-2288.353-3073.155c-1.428,0-2.86-.006-4.287-.018a1.51,1.51,0,0,1-1.114-.439,1.227,1.227,0,0,1-.32-.922c.046-.745.6-1.194,1.488-1.2,1-.007,2.01-.005,2.99,0,.418,0,.838,0,1.255,0h1.249c.982,0,2,0,3,0,.931.006,1.489.479,1.494,1.265a1.29,1.29,0,0,1-1.417,1.3C-2285.451-3073.161-2286.9-3073.155-2288.353-3073.155Zm-2.477-2.169c-.584,0-1.171,0-1.753,0-.469,0-1.036.146-1.077.81a.805.805,0,0,0,.209.614,1.1,1.1,0,0,0,.814.307c2.877.023,5.775.023,8.615,0,.633,0,1.01-.333,1.006-.878,0-.7-.591-.85-1.082-.853-1-.007-2.012-.006-2.993,0h-1.249v0h-2.489Z" transform="translate(2294.076 3075.739)" fill="#93aeda"></path></g><g transform="translate(28.977 49.084)"><path d="M-2071.464-3114.611c-1.479,0-2.958,0-4.437,0a.973.973,0,0,1-1.01-.763,1.038,1.038,0,0,1,.391-1.161,1.146,1.146,0,0,1,.742-.2c2.893-.005,5.786-.012,8.679,0a1.081,1.081,0,0,1,1.2,1.09,1.081,1.081,0,0,1-1.193,1.032c-1.457.019-2.915.006-4.372.006Z" transform="translate(2077.163 3116.946)" fill="#93aeda"></path><path d="M-2070.707-3116.183l-1.271,0-1.275,0h-.208v-.008h-1.046c-1.043,0-2.123,0-3.184,0a1.181,1.181,0,0,1-1.209-.916,1.248,1.248,0,0,1,.464-1.378,1.34,1.34,0,0,1,.869-.24h.343c2.732-.005,5.558-.01,8.338,0a1.479,1.479,0,0,1,1.077.418,1.2,1.2,0,0,1,.329.887,1.292,1.292,0,0,1-1.4,1.231C-2069.485-3116.185-2070.1-3116.183-2070.707-3116.183Zm-2.339-.419,1.069,0c1.014,0,2.063.006,3.093-.008a.879.879,0,0,0,.989-.832.783.783,0,0,0-.214-.585,1.072,1.072,0,0,0-.78-.291c-2.778-.014-5.6-.008-8.335,0h-.343a.942.942,0,0,0-.615.152.835.835,0,0,0-.318.944.764.764,0,0,0,.811.609c1.06,0,2.139,0,3.182,0h1.462Z" transform="translate(2078.952 3118.739)" fill="#93aeda"></path></g><g transform="translate(6.672 44.579)"><path d="M-2288.255-3158.019c-.891,0-1.781.014-2.671,0a1.062,1.062,0,0,1-1.146-1,1.035,1.035,0,0,1,1.033-1.111c1.886-.084,3.777-.091,5.663,0a.982.982,0,0,1,1,1.121,1.016,1.016,0,0,1-1.137.99C-2286.431-3158.005-2287.344-3158.019-2288.255-3158.019Z" transform="translate(2292.282 3160.408)" fill="#93aeda"></path><path d="M-2291.655-3159.594c-.356,0-.714,0-1.069-.01a1.265,1.265,0,0,1-1.35-1.2,1.246,1.246,0,0,1,.313-.916,1.3,1.3,0,0,1,.918-.415c1.973-.088,3.885-.086,5.682,0a1.249,1.249,0,0,1,.891.386,1.284,1.284,0,0,1,.3.952,1.221,1.221,0,0,1-1.34,1.186c-.638.013-1.287.01-1.914.007-.275,0-.547,0-.827,0h0l-.8,0Zm1.683-2.188c-.932,0-1.885.022-2.853.065a.873.873,0,0,0-.628.278.832.832,0,0,0-.207.614.854.854,0,0,0,.944.807c.621.013,1.254.01,1.866.007l.8,0c.272,0,.552,0,.829,0,.624,0,1.27.006,1.9-.007.408-.008.9-.152.934-.793a.882.882,0,0,0-.195-.653.835.835,0,0,0-.6-.25C-2288.084-3161.76-2289.017-3161.782-2289.971-3161.782Z" transform="translate(2294.076 3162.197)" fill="#93aeda"></path></g><g transform="translate(32.3 57.995)"><path d="M-2040.992-3030.795c.869,0,1.739-.01,2.608,0a1.1,1.1,0,0,1,1.211,1.018,1.091,1.091,0,0,1-1.106,1.131c-1.825.041-3.651.04-5.477.007a1.113,1.113,0,0,1-1.15-1.1,1.113,1.113,0,0,1,1.239-1.059C-2042.775-3030.8-2041.883-3030.795-2040.992-3030.795Z" transform="translate(2045.113 3031.005)" fill="#93aeda"></path><path d="M-2042.909-3030.2c-.857,0-1.734-.008-2.642-.025a1.321,1.321,0,0,1-1.354-1.308,1.315,1.315,0,0,1,1.444-1.263c.627-.008,1.265-.006,1.881,0l.8,0h0l.8,0c.593,0,1.206,0,1.81.005a1.306,1.306,0,0,1,1.415,1.211,1.252,1.252,0,0,1-.33.92,1.351,1.351,0,0,1-.978.432C-2041-3030.207-2041.941-3030.2-2042.909-3030.2Zm-1.5-2.187c-.35,0-.7,0-1.051.006-.621.008-1.027.344-1.035.855a.91.91,0,0,0,.947.887c1.929.035,3.718.032,5.468-.007a.942.942,0,0,0,.682-.3.836.836,0,0,0,.222-.614.9.9,0,0,0-1.007-.823c-.6-.009-1.212-.007-1.8-.005l-.8,0-.8,0Z" transform="translate(2046.905 3032.798)" fill="#93aeda"></path></g><g transform="translate(6.673 57.995)"><path d="M-2288.723-3030.8c.7,0,1.391-.011,2.085,0a1.093,1.093,0,0,1,1.174.983,1.036,1.036,0,0,1-1,1.142c-1.517.059-3.039.06-4.557.012a1.052,1.052,0,0,1-1.045-1.112,1.087,1.087,0,0,1,1.2-1.026C-2290.157-3030.807-2289.44-3030.8-2288.723-3030.8Z" transform="translate(2292.278 3031.007)" fill="#93aeda"></path><path d="M-2290.684-3030.206c-.7,0-1.419-.011-2.14-.033a1.283,1.283,0,0,1-.909-.4,1.29,1.29,0,0,1-.336-.929,1.289,1.289,0,0,1,1.4-1.224c.5-.01,1.013-.007,1.506,0l.657,0,.628,0c.476,0,.968,0,1.453.006a1.3,1.3,0,0,1,1.376,1.171,1.266,1.266,0,0,1-.305.949,1.245,1.245,0,0,1-.9.42C-2289.045-3030.222-2289.857-3030.206-2290.684-3030.206Zm-1.143-2.179c-.278,0-.559,0-.836.007-.6.012-.971.321-.993.828a.872.872,0,0,0,.226.628.857.857,0,0,0,.618.268c1.558.048,3.086.044,4.542-.013a.817.817,0,0,0,.6-.278.849.849,0,0,0,.2-.637.886.886,0,0,0-.972-.8c-.479-.01-.969-.008-1.442-.005l-.639,0h0l-.65,0Z" transform="translate(2294.072 3032.8)" fill="#93aeda"></path></g><g transform="translate(33.439 44.608)"><path d="M-2030.658-3157.764c-.716,0-1.433.016-2.149,0a1.027,1.027,0,0,1-1.117-1.016.994.994,0,0,1,1.032-1.1c1.495-.048,2.994-.046,4.489-.005a1.053,1.053,0,0,1,1.074,1.079,1.089,1.089,0,0,1-1.181,1.041C-2029.225-3157.75-2029.942-3157.763-2030.658-3157.764Z" transform="translate(2034.132 3160.124)" fill="#93aeda"></path><path d="M-2031.135-3159.342l-.691,0-.625,0c-.225,0-.449,0-.673,0-.485,0-.986.006-1.481-.008a1.229,1.229,0,0,1-1.318-1.216,1.264,1.264,0,0,1,.319-.931,1.272,1.272,0,0,1,.914-.379c1.437-.046,2.952-.048,4.5-.005a1.257,1.257,0,0,1,1.276,1.292,1.291,1.291,0,0,1-1.384,1.242C-2030.575-3159.344-2030.856-3159.342-2031.135-3159.342Zm-1.316-.42.627,0c.5,0,1.013.006,1.517-.005a.887.887,0,0,0,.978-.839.851.851,0,0,0-.872-.866c-1.542-.042-3.048-.041-4.477.006a.868.868,0,0,0-.624.248.859.859,0,0,0-.207.634.824.824,0,0,0,.916.815c.487.014.985.011,1.467.008Z" transform="translate(2035.925 3161.915)" fill="#93aeda"></path></g><g transform="translate(35.668 53.55)"><path d="M-2010.241-3073.658c.411,0,.824-.025,1.233.007a.969.969,0,0,1,.934.988.946.946,0,0,1-.825,1.074,8.413,8.413,0,0,1-2.713-.005.935.935,0,0,1-.806-1.084.966.966,0,0,1,.944-.972C-2011.066-3073.688-2010.652-3073.658-2010.241-3073.658Z" transform="translate(2012.629 3073.877)" fill="#93aeda"></path><path d="M-2012.06-3073.068a8.153,8.153,0,0,1-1.38-.115,1.146,1.146,0,0,1-.978-1.3,1.178,1.178,0,0,1,1.132-1.165,7.679,7.679,0,0,1,.879-.014c.128,0,.254.006.383.006s.248,0,.372,0c.283-.005.577-.011.868.012a1.175,1.175,0,0,1,1.125,1.184,1.157,1.157,0,0,1-1,1.29A9.19,9.19,0,0,1-2012.06-3073.068Zm-.739-2.187c-.151,0-.3,0-.449.018a.763.763,0,0,0-.756.78.741.741,0,0,0,.634.866,8.23,8.23,0,0,0,2.646,0,.75.75,0,0,0,.65-.857.766.766,0,0,0-.743-.793c-.271-.021-.554-.016-.827-.011-.13,0-.259.005-.39,0s-.255,0-.382-.006S-2012.674-3075.255-2012.8-3075.255Z" transform="translate(2014.421 3075.67)" fill="#93aeda"></path></g><g transform="translate(6.674 49.09)"><path d="M-2289.88-3114.576c-.411,0-.824.031-1.232-.007a1.029,1.029,0,0,1-.948-1.045,1.009,1.009,0,0,1,.965-1.028c.82-.039,1.645-.038,2.464,0a1.027,1.027,0,0,1,.954,1.042,1.074,1.074,0,0,1-.971,1.037,1.439,1.439,0,0,1-.194.019c-.346,0-.693,0-1.039,0Z" transform="translate(2292.267 3116.892)" fill="#93aeda"></path><path d="M-2291.139-3116.14h-.74v-.019l-.169,0a7.4,7.4,0,0,1-.875-.014,1.242,1.242,0,0,1-1.136-1.253,1.22,1.22,0,0,1,1.162-1.233c.826-.039,1.662-.038,2.485,0a1.238,1.238,0,0,1,1.151,1.251,1.286,1.286,0,0,1-1.15,1.24h-.012a1.577,1.577,0,0,1-.209.02Zm-.326-.415h.831a1.139,1.139,0,0,0,.154-.015h.013a.866.866,0,0,0,.792-.834.82.82,0,0,0-.757-.833c-.809-.04-1.632-.041-2.444,0a.8.8,0,0,0-.767.823.82.82,0,0,0,.76.837,7.245,7.245,0,0,0,.827.012c.128,0,.257-.006.385-.006h.208Z" transform="translate(2294.06 3118.684)" fill="#93aeda"></path></g></g></svg>