<svg xmlns="http://www.w3.org/2000/svg" width="73.892" height="67.814" viewBox="0 0 73.892 67.814"><g transform="translate(0)"><g transform="translate(0 0)"><path d="M-1511.155-3596.836a1.959,1.959,0,0,1,1.966-1.021q22.61.029,45.22.014c1.475,0,1.982.506,1.983,1.992q0,7.574,0,15.148v.955c6.546-2.5,12.646-1.9,18.167,2.426a16.809,16.809,0,0,1,6.214,10.253,17.156,17.156,0,0,1-.827,9.629,17.4,17.4,0,0,1-5.806,7.732,17.479,17.479,0,0,1-9.087,3.5v.882q0,6.672,0,13.345c0,1.077-.362,1.643-1.144,1.833a1.367,1.367,0,0,1-1.7-1.022,4.9,4.9,0,0,1-.1-1.071q-.01-6.492,0-12.984v-.815l-5.712-1.47v.76q0,7.249,0,14.5c0,1.735-.474,2.2-2.235,2.2q-22.394,0-44.787.01a2.256,2.256,0,0,1-2.148-.989Zm2.921,1.9v61.877H-1465a.822.822,0,0,0,.037-.133c.008-5.266.021-10.532.006-15.8a1.169,1.169,0,0,0-.4-.686c-.925-.906-1.937-1.732-2.8-2.693a14.673,14.673,0,0,1-3.051-5.257,1.367,1.367,0,0,1,.82-1.7,1.391,1.391,0,0,1,1.754.574,6.076,6.076,0,0,1,.381.773,14.572,14.572,0,0,0,18.763,7.917,14.622,14.622,0,0,0,8.03-19.537,14.143,14.143,0,0,0-12.844-8.641,13.97,13.97,0,0,0-10.179,3.628,15.046,15.046,0,0,0-3.945,5.606,1.447,1.447,0,0,1-2.015.954,1.5,1.5,0,0,1-.644-2.084,17.272,17.272,0,0,1,5.622-7.437,1.2,1.2,0,0,0,.536-1.076c-.017-5.194-.01-10.388-.012-15.583,0-.229-.028-.457-.043-.7Z" transform="translate(1511.155 3597.857)" fill="#283775"></path><path d="M-1419.383-3507.831c0,1.276-.577,1.859-1.843,1.862q-5.7.018-11.39,0c-1.311,0-1.858-.581-1.861-1.914-.005-1.9,0-3.8,0-5.7,0-1.875-.005-3.749,0-5.624.005-1.282.569-1.858,1.84-1.86q5.7-.009,11.39,0c1.277,0,1.858.565,1.862,1.84Q-1419.367-3513.527-1419.383-3507.831Z" transform="translate(1442.429 3529.028)" fill="#fe4947"></path><path d="M-1417.324-3107.634h-14.565c-.192,0-.385,0-.577,0-1.162-.012-1.861-.56-1.853-1.452s.72-1.449,1.872-1.449q15.142,0,30.284,0a2.88,2.88,0,0,1,.918.131,1.382,1.382,0,0,1,.915,1.475,1.38,1.38,0,0,1-1.2,1.252,6.376,6.376,0,0,1-.935.039Q-1409.9-3107.632-1417.324-3107.634Z" transform="translate(1442.286 3161.064)" fill="#93aeda"></path><path d="M-1417.239-3052.035h14.783c.216,0,.434-.012.649.007a1.519,1.519,0,0,1,1.5,1.455,1.475,1.475,0,0,1-1.49,1.447c-.239.021-.48.015-.72.015q-14.782,0-29.565,0a6.9,6.9,0,0,1-1.005-.055,1.433,1.433,0,0,1-1.219-1.318,1.422,1.422,0,0,1,1-1.422,3.641,3.641,0,0,1,.993-.122Q-1424.775-3052.04-1417.239-3052.035Z" transform="translate(1442.275 3108.63)" fill="#93aeda"></path><path d="M-1418.584-3166.16h-13.693c-.24,0-.482.008-.72-.015a1.481,1.481,0,0,1-1.332-1.379,1.49,1.49,0,0,1,1.171-1.452,4.106,4.106,0,0,1,.79-.04q13.8,0,27.6,0c.1,0,.192,0,.288,0,1.017.018,1.714.625,1.691,1.474a1.5,1.5,0,0,1-1.672,1.41Q-1411.521-3166.154-1418.584-3166.16Z" transform="translate(1442.296 3213.509)" fill="#93aeda"></path><path d="M-1419.849-3345.052h12.26a7.782,7.782,0,0,1,.792.023,1.454,1.454,0,0,1,1.439,1.417,1.5,1.5,0,0,1-1.338,1.457,3.91,3.91,0,0,1-.647.03q-12.477,0-24.954,0a3.792,3.792,0,0,1-.994-.12,1.433,1.433,0,0,1-1.024-1.406,1.428,1.428,0,0,1,1.2-1.333,5.947,5.947,0,0,1,.932-.062Q-1426.015-3345.056-1419.849-3345.052Z" transform="translate(1442.283 3371.264)" fill="#93aeda"></path><path d="M-1420.069-3224.814q-6.126,0-12.251,0a4.9,4.9,0,0,1-.719-.023,1.5,1.5,0,0,1-1.28-1.435,1.477,1.477,0,0,1,1.365-1.419c.143-.014.288-.015.432-.015q12.5,0,25.007-.006a1.626,1.626,0,0,1,1.645.8,1.441,1.441,0,0,1-1.371,2.094c-1.272.031-2.546.008-3.819.008Z" transform="translate(1442.286 3266.092)" fill="#93aeda"></path><path d="M-1420.47-3286.475c3.919,0,7.839.028,11.758-.014,1.568-.017,1.972.718,2,1.446.043.969-.687,1.48-2.042,1.48q-11.758,0-23.517,0a3.714,3.714,0,0,1-.995-.109,1.418,1.418,0,0,1-1.018-1.478,1.433,1.433,0,0,1,1.26-1.281,6.875,6.875,0,0,1,.863-.039Q-1426.313-3286.478-1420.47-3286.475Z" transform="translate(1442.257 3318.773)" fill="#93aeda"></path><path d="M-1255.2-3462.487c2.016,0,4.032,0,6.048,0a3.871,3.871,0,0,1,.922.106,1.413,1.413,0,0,1,1.089,1.419,1.421,1.421,0,0,1-1.195,1.333,4.228,4.228,0,0,1-.784.076q-6.192.007-12.384,0a3.455,3.455,0,0,1-.854-.093,1.326,1.326,0,0,1-1.063-1.285,1.352,1.352,0,0,1,.965-1.43,3.738,3.738,0,0,1,.991-.125C-1259.375-3462.492-1257.287-3462.487-1255.2-3462.487Z" transform="translate(1289.11 3476.524)" fill="#93aeda"></path><path d="M-1255.332-3518.167c-2.14,0-4.28.01-6.42-.005-1.026-.007-1.621-.489-1.692-1.3-.083-.943.584-1.6,1.689-1.608,1.515-.016,3.03,0,4.545,0h8.3a1.6,1.6,0,0,1,1.608.875,1.16,1.16,0,0,1-.208,1.463,2.646,2.646,0,0,1-1.47.553C-1251.1-3518.132-1253.216-3518.166-1255.332-3518.167Z" transform="translate(1289.134 3529.046)" fill="#93aeda"></path><path d="M-1256.444-3400.9c-1.752,0-3.5.013-5.256,0-1.065-.011-1.711-.566-1.734-1.425a1.362,1.362,0,0,1,1.08-1.415,4.2,4.2,0,0,1,.925-.1q5.04-.01,10.08,0c1.333,0,2.061.54,2.039,1.5-.021.933-.733,1.445-2.022,1.447Q-1253.888-3400.892-1256.444-3400.9Z" transform="translate(1289.119 3423.96)" fill="#93aeda"></path><path d="M-1133.787-3280.588a1.469,1.469,0,0,1-1.386,1.471,1.518,1.518,0,0,1-1.487-1.466,1.45,1.45,0,0,1,1.445-1.405A1.4,1.4,0,0,1-1133.787-3280.588Z" transform="translate(1175.49 3314.739)" fill="#fe4947"></path></g><path d="M-1058.114-3343.6a3.122,3.122,0,0,1,0,2.48l-1.147,2.652a2.235,2.235,0,0,1-2.928,1.161l-.175-.076a2.234,2.234,0,0,1-1.277-2.583l2.12-4.906a1.113,1.113,0,0,0,.074-.246,1.131,1.131,0,0,0-.908-1.316,1.131,1.131,0,0,0-1.2.58c-.015.027-.028.056-.041.084l-3.2,7.415a2.234,2.234,0,0,1-2.874,1.046l-.176-.076a2.22,2.22,0,0,1-1.17-1.192l-1.584-3.663-1.627,3.77a2.235,2.235,0,0,1-2.928,1.161l-.175-.076a2.234,2.234,0,0,1-1.161-2.928l5.054-11.695a2.232,2.232,0,0,1,2.928-1.161l.175.075a2.236,2.236,0,0,1,1.283,2.559l-2.041,4.72a1.07,1.07,0,0,0-.077.264,1.13,1.13,0,0,0,.93,1.3,1.13,1.13,0,0,0,1.224-.667l3.067-7.09a2.233,2.233,0,0,1,2.928-1.161l.175.075a2.209,2.209,0,0,1,1.027.9h0l.227.524,1.49,3.447Z" transform="translate(1123.517 3378.704)" fill="#283775"></path><path d="M-884.86-3327.13h-1.119v-1.117h-1.382v1.117h-1.119v1.382h1.119v1.119h1.382v-1.117h1.119Z" transform="translate(953.041 3356.201)" fill="#283775"></path></g></svg>