<svg xmlns="http://www.w3.org/2000/svg" width="67.997" height="67.958" viewBox="0 0 67.997 67.958"><g transform="translate(0 0)"><g transform="translate(0 0)"><path d="M-476.841-3575.3c-.206.915-.34,1.853-.63,2.74-2,6.147-6.311,9.614-12.7,10.806v.692q0,11.9,0,23.81a4.92,4.92,0,0,1-5.19,5.22q-21.934,0-43.868,0a4.915,4.915,0,0,1-5.167-5.176q0-7.024,0-14.048c0-.7.318-1.124.872-1.2a1,1,0,0,1,1.1,1.1c.009,1.759,0,3.518,0,5.276q0,4.386,0,8.772a3.025,3.025,0,0,0,3.272,3.3q21.868,0,43.736,0a3,3,0,0,0,3.262-3.105q.016-12.1,0-24.206c0-.107-.012-.213-.015-.272-1.283-.223-2.526-.452-3.776-.64a.639.639,0,0,0-.5.272q-.728,1.175-1.381,2.4a.7.7,0,0,0,.018.576,2.991,2.991,0,0,1-.033,3.185c-2.584,4.466-5.151,8.941-7.749,13.4a5.417,5.417,0,0,1-5.759,2.7,5.439,5.439,0,0,1-4.34-4.418,4.8,4.8,0,0,1,.5-3.386q4-7.006,8.06-13.977a2.921,2.921,0,0,1,2.472-1.408,1.038,1.038,0,0,0,.706-.394c.529-.826,1-1.692,1.544-2.647h-.79q-4.749,0-9.5,0a4.364,4.364,0,0,1-4.425-3.412c-.223-.825-.417-1.658-.632-2.485a2.459,2.459,0,0,0-2.57-2.014q-9.5-.012-19,0a2.99,2.99,0,0,0-3.108,3.191q-.01,7.057,0,14.114a2.9,2.9,0,0,1-.015.592.934.934,0,0,1-.968.817.934.934,0,0,1-.974-.81,2.81,2.81,0,0,1-.016-.592c0-4.639.069-9.279-.027-13.916a5.139,5.139,0,0,1,4.269-5.349c.085-.013.168-.039.314-.073v-.779q0-8.706,0-17.412c0-2.929,1.137-4.489,3.932-5.418.035-.012.058-.061.086-.092h38.265c.177.071.351.152.531.213a4.775,4.775,0,0,1,3.339,3.582,12.465,12.465,0,0,1,.173,2.289c.023.514,0,1.03,0,1.6a29.021,29.021,0,0,1,3.33.018,15.117,15.117,0,0,1,12.865,11.245c.188.713.317,1.441.473,2.163Zm-60.98-.525h.878q8.378,0,16.757,0a4.337,4.337,0,0,1,4.3,3.229c.244.842.437,1.7.651,2.548a2.532,2.532,0,0,0,2.747,2.136q3.826.007,7.653,0c.18,0,.359-.027.591-.046-.092-.154-.132-.23-.181-.3a15.108,15.108,0,0,1-2.617-10.053c.059-.729.492-1.21,1.072-1.178.622.033.94.554.931,1.336a24.734,24.734,0,0,0,.089,3.154,13.152,13.152,0,0,0,15.731,11,13.117,13.117,0,0,0,10.154-15.253,13.135,13.135,0,0,0-15.942-10.354,13.124,13.124,0,0,0-8.709,6.891c-.389.737-.907.964-1.474.664s-.668-.855-.292-1.591a14.794,14.794,0,0,1,6.746-6.715c1.012-.5,2.094-.861,3.193-1.305,0-.833-.047-1.714.009-2.588a3.115,3.115,0,0,0-3.344-3.358q-17.812.051-35.625,0a3.181,3.181,0,0,0-3.34,3.311c.065,5.914.024,11.829.023,17.743Zm38.17,15.4,1.477-2.556-2.7-1.567-1.48,2.561Z" transform="translate(544.63 3599.778)" fill="#283775"></path><path d="M-519.243-3533.615H-541.02a5.339,5.339,0,0,1-3.882-1.5,5.361,5.361,0,0,1-1.491-3.888q0-7.025,0-14.049a1.238,1.238,0,0,1,1.053-1.4,1.118,1.118,0,0,1,.892.265,1.362,1.362,0,0,1,.439,1.041c.007,1.264.005,2.549,0,3.792q0,.743,0,1.486v2.71q0,3.031,0,6.062a2.83,2.83,0,0,0,3.065,3.089c14.56,0,29.275,0,43.736,0a2.8,2.8,0,0,0,3.055-2.9c.008-6.164.007-12.43,0-18.49v-5.715c0-.032,0-.064,0-.1l-.737-.13c-.988-.174-1.92-.338-2.874-.482a.473.473,0,0,0-.292.176c-.485.783-.947,1.585-1.374,2.384a.506.506,0,0,0,.016.375,3.214,3.214,0,0,1-.033,3.392q-1.361,2.352-2.718,4.707c-1.645,2.851-3.345,5.8-5.032,8.691a5.643,5.643,0,0,1-5.974,2.8,5.668,5.668,0,0,1-4.507-4.582,5.027,5.027,0,0,1,.524-3.529c2.331-4.083,4.817-8.394,8.06-13.978a3.1,3.1,0,0,1,2.635-1.511.835.835,0,0,0,.548-.3c.38-.594.73-1.213,1.1-1.868l.26-.46h-3.25q-3.341,0-6.682,0a4.591,4.591,0,0,1-4.625-3.565c-.131-.485-.254-.979-.373-1.458-.085-.343-.17-.687-.259-1.029a2.248,2.248,0,0,0-2.37-1.858c-7.1-.009-13.316-.009-19,0a2.792,2.792,0,0,0-2.9,2.984c0,3.226,0,6.507,0,9.679q0,2.217,0,4.435c0,.052,0,.1,0,.157a1.952,1.952,0,0,1-.024.478,1.139,1.139,0,0,1-1.17.981,1.144,1.144,0,0,1-1.177-.973,1.883,1.883,0,0,1-.024-.478c0-.053,0-.106,0-.158,0-1.38.006-2.784.012-4.141.014-3.2.029-6.516-.039-9.771a5.7,5.7,0,0,1,1.2-3.671,5.177,5.177,0,0,1,3.243-1.886c.04-.007.083-.017.139-.031v-5.62q0-6.205,0-12.409c0-3.013,1.17-4.638,4.034-5.6a.569.569,0,0,1,.037-.047l.062-.069h38.4l.037.015.171.071c.12.051.233.1.349.138a4.96,4.96,0,0,1,3.475,3.73,8.367,8.367,0,0,1,.161,1.746c0,.191.008.389.017.581.016.357.013.711.009,1.086q0,.155,0,.313c.308,0,.611-.012.905-.021a14.891,14.891,0,0,1,2.241.042,15.337,15.337,0,0,1,13.041,11.4c.13.493.233,1,.333,1.487.047.229.093.457.142.685l0,.044v3.189l-.005.022c-.065.287-.123.582-.18.868a16.44,16.44,0,0,1-.455,1.892,15.747,15.747,0,0,1-4.769,7.355,17.233,17.233,0,0,1-7.92,3.558v7.266q0,8.532,0,17.063a5.125,5.125,0,0,1-5.4,5.427Zm-25.94-20.43a.751.751,0,0,0-.1.007c-.571.074-.692.58-.692.99q0,7.025,0,14.048a4.7,4.7,0,0,0,4.959,4.969q21.934,0,43.868,0a4.732,4.732,0,0,0,4.982-5.013q0-8.532,0-17.063v-7.61l.169-.032c6.494-1.212,10.6-4.7,12.54-10.667a16.174,16.174,0,0,0,.442-1.844c.056-.281.114-.571.177-.855v-3.121c-.048-.222-.093-.445-.139-.667-.1-.483-.2-.983-.327-1.464A14.926,14.926,0,0,0-492-3593.459a14.617,14.617,0,0,0-2.179-.039c-.364.011-.74.022-1.126.022h-.207v-.207c0-.18,0-.355,0-.527,0-.369.008-.717-.008-1.063-.009-.2-.013-.4-.018-.591a8.059,8.059,0,0,0-.15-1.659,4.569,4.569,0,0,0-3.2-3.433c-.131-.044-.257-.1-.379-.149l-.127-.054h-38.123a.285.285,0,0,1-.122.082c-2.726.906-3.789,2.37-3.79,5.221q0,6.2,0,12.409v5.946l-.16.038-.131.032c-.075.019-.134.034-.2.044a4.907,4.907,0,0,0-4.094,5.14c.067,3.26.053,6.575.039,9.781-.006,1.357-.012,2.76-.012,4.139,0,.057,0,.115,0,.173a1.55,1.55,0,0,0,.015.375.726.726,0,0,0,.771.647.728.728,0,0,0,.766-.653,1.627,1.627,0,0,0,.015-.377c0-.058,0-.115,0-.172q0-2.217,0-4.434c0-3.173,0-6.454,0-9.68a3.184,3.184,0,0,1,3.315-3.4c5.682-.01,11.9-.01,19,0a2.655,2.655,0,0,1,2.771,2.169c.089.344.175.688.26,1.034.118.476.241.969.371,1.449a4.147,4.147,0,0,0,4.225,3.259q3.341,0,6.682,0h3.966l-.179.311c-.151.263-.3.518-.436.768-.373.66-.726,1.284-1.112,1.888a1.25,1.25,0,0,1-.864.489,2.707,2.707,0,0,0-2.31,1.305c-3.243,5.583-5.729,9.894-8.059,13.976a4.557,4.557,0,0,0-.477,3.242,5.255,5.255,0,0,0,4.173,4.254,5.238,5.238,0,0,0,5.544-2.6c1.686-2.891,3.386-5.839,5.031-8.69q1.358-2.354,2.718-4.708a2.789,2.789,0,0,0,.032-2.979.9.9,0,0,1-.021-.776c.431-.807.9-1.617,1.387-2.408a.827.827,0,0,1,.706-.368c.959.145,1.894.31,2.884.484l.9.157.162.028.01.165c0,.015,0,.034,0,.054,0,.061.011.145.011.23v5.715c0,6.061,0,12.327,0,18.491a3.216,3.216,0,0,1-3.47,3.313c-14.461,0-29.176,0-43.736,0a3.242,3.242,0,0,1-3.48-3.5q0-3.031,0-6.062v-2.71q0-.743,0-1.486c0-1.242,0-2.526,0-3.79a.953.953,0,0,0-.3-.73A.688.688,0,0,0-545.182-3554.045Zm43.816-7.889-3.063-1.77,1.688-2.92,3.059,1.775Zm-2.5-1.922,2.345,1.355,1.269-2.2-2.341-1.359Zm10.113-1.424a13.4,13.4,0,0,1-7.7-2.484,12.961,12.961,0,0,1-5.5-9,23.366,23.366,0,0,1-.093-2.987l0-.194c0-.406-.085-1.092-.735-1.127-.46-.025-.8.372-.854.988a14.977,14.977,0,0,0,2.581,9.919c.035.051.065.1.106.173l.082.14.171.286-.332.027-.213.02a3.935,3.935,0,0,1-.394.027h-.049c-2.492,0-5.069.005-7.6,0a2.745,2.745,0,0,1-2.948-2.292c-.063-.249-.124-.5-.185-.748-.144-.591-.294-1.2-.465-1.793a4.134,4.134,0,0,0-4.1-3.08q-6.032,0-12.065,0h-5.778v-.942q0-2.482.007-4.964c.008-4.188.017-8.519-.03-12.776a3.467,3.467,0,0,1,.969-2.511,3.568,3.568,0,0,1,2.579-1.009c11.922.032,23.907.032,35.623,0h.012a3.7,3.7,0,0,1,2.706,1.09,3.23,3.23,0,0,1,.834,2.489c-.038.6-.028,1.2-.018,1.786,0,.266.009.53.009.789v.14l-.13.052c-.35.142-.7.276-1.042.406-.748.286-1.455.556-2.138.893a14.641,14.641,0,0,0-6.653,6.624c-.322.629-.253,1.071.2,1.313a.709.709,0,0,0,.55.078,1.233,1.233,0,0,0,.643-.655,13.376,13.376,0,0,1,8.842-7,13.125,13.125,0,0,1,10.344,1.786,13.15,13.15,0,0,1,5.854,8.734,13.541,13.541,0,0,1-2,9.844,13.535,13.535,0,0,1-8.308,5.646A12.421,12.421,0,0,1-493.749-3565.279Zm-14.067-16.211h.065c.716.039,1.138.617,1.127,1.546l0,.194a23.025,23.025,0,0,0,.09,2.934,12.545,12.545,0,0,0,5.328,8.712A12.734,12.734,0,0,0-491.058-3566a12.979,12.979,0,0,0,10-15.016,12.733,12.733,0,0,0-5.671-8.457,12.71,12.71,0,0,0-10.015-1.732,12.975,12.975,0,0,0-8.577,6.787,1.6,1.6,0,0,1-.888.858,1.106,1.106,0,0,1-.866-.107c-.667-.354-.806-1.035-.38-1.869a15.045,15.045,0,0,1,6.838-6.807c.7-.347,1.416-.62,2.173-.909.3-.113.6-.229.9-.351,0-.211,0-.425-.008-.642-.01-.593-.021-1.207.018-1.819a2.825,2.825,0,0,0-.722-2.178,3.284,3.284,0,0,0-2.4-.959h-.011c-11.717.034-23.7.034-35.626,0h-.01a3.157,3.157,0,0,0-2.273.886,3.057,3.057,0,0,0-.849,2.214c.047,4.261.038,8.592.03,12.782q0,2.481-.006,4.963v.528h5.363q6.033,0,12.065,0a4.535,4.535,0,0,1,4.5,3.378c.174.6.324,1.215.47,1.811.061.248.121.5.184.744a2.324,2.324,0,0,0,2.546,1.979c2.534.005,5.111,0,7.6,0h.049c.078,0,.158-.006.245-.014l-.006-.009a15.381,15.381,0,0,1-2.652-10.187A1.32,1.32,0,0,1-507.816-3581.49Z" transform="translate(546.422 3601.572)" fill="#283775"></path></g><path d="M-234.547-3222.091q-3.834,6.646-7.674,13.287a3.271,3.271,0,0,1-2.654,1.81c-3.02-.01-4.659-2.773-3.4-5.087.946-1.733,1.966-3.428,2.953-5.139q2.387-4.135,4.777-8.27c.475-.82.843-.923,1.661-.455q1.944,1.11,3.881,2.234C-234.224-3223.259-234.107-3222.855-234.547-3222.091Z" transform="translate(279.57 3265.141)" fill="#406199"></path><path d="M-113.076-3464.685a9.7,9.7,0,0,1-9.8,9.7,9.746,9.746,0,0,1-9.674-9.719,9.8,9.8,0,0,1,9.791-9.759A9.746,9.746,0,0,1-113.076-3464.685Z" transform="translate(175.462 3487.641)" fill="#fe4947"></path><path d="M-417.208-3540.374q-7.087,0-14.175,0c-.762,0-1.206-.384-1.174-1.015a.928.928,0,0,1,.838-.945,3.52,3.52,0,0,1,.592-.012h27.757a3.626,3.626,0,0,1,.592.012.925.925,0,0,1,.848.938.932.932,0,0,1-.841,1.01,3.231,3.231,0,0,1-.592.013Z" transform="translate(444.365 3548.495)" fill="#6f8cc7"></path><path d="M-420.219-3485.1h10.943a2.589,2.589,0,0,1,.591.019.939.939,0,0,1,.794.988.944.944,0,0,1-.769.944,1.792,1.792,0,0,1-.459.022h-22.347c-.708-.017-1.133-.4-1.121-1.008a.981.981,0,0,1,1.1-.964c.549-.009,1.1,0,1.648,0Z" transform="translate(444.39 3497.179)" fill="#6f8cc7"></path><path d="M-420.877-3426.008c-3.362,0-6.724.01-10.085-.015a1.477,1.477,0,0,1-.986-.359,1.062,1.062,0,0,1-.162-.951,1.264,1.264,0,0,1,.817-.618,8.89,8.89,0,0,1,1.643-.031H-411c.176,0,.352-.008.527,0a.991.991,0,0,1,.988,1.013.97.97,0,0,1-.981.95c-1.12.02-2.241.007-3.362.007Z" transform="translate(444.009 3446.002)" fill="#6f8cc7"></path></g></svg>