<svg xmlns="http://www.w3.org/2000/svg" xmlns:xlink="http://www.w3.org/1999/xlink" width="530.503" height="425.904" viewBox="0 0 530.503 425.904"><defs><linearGradient id="a" x1="1.334" y1="-0.368" x2="0.091" y2="1.91" gradientUnits="objectBoundingBox"><stop offset="0" stop-color="#355199"></stop><stop offset="0.744" stop-color="#173872"></stop><stop offset="1" stop-color="#0d3064"></stop></linearGradient><linearGradient id="b" x1="0.4" y1="-0.188" x2="0.585" y2="1.085" xlink:href="#a"></linearGradient><linearGradient id="c" x1="0" y1="0.5" x2="1" y2="0.5" xlink:href="#a"></linearGradient><linearGradient id="d" x1="0.553" y1="-0.157" x2="0.445" y2="1.192" gradientUnits="objectBoundingBox"><stop offset="0" stop-color="#eef1f9"></stop><stop offset="0.477" stop-color="#eceff8"></stop><stop offset="0.648" stop-color="#e5e9f4"></stop><stop offset="0.771" stop-color="#d9deee"></stop><stop offset="0.869" stop-color="#c8cee6"></stop><stop offset="0.953" stop-color="#b2badb"></stop><stop offset="1" stop-color="#a3acd3"></stop></linearGradient><linearGradient id="e" x1="0.842" y1="-0.227" x2="0.235" y2="1.064" gradientUnits="objectBoundingBox"><stop offset="0" stop-color="#d44242"></stop><stop offset="1" stop-color="#e93339"></stop></linearGradient><linearGradient id="f" x1="0.719" y1="-0.214" x2="0.302" y2="1.147" xlink:href="#e"></linearGradient><linearGradient id="g" x1="0.75" y1="-0.481" x2="0.333" y2="1.156" xlink:href="#e"></linearGradient><linearGradient id="h" x1="0.775" y1="-0.783" x2="0.358" y2="1.162" xlink:href="#e"></linearGradient><linearGradient id="i" x1="0.812" y1="-1.559" x2="0.395" y2="1.195" xlink:href="#e"></linearGradient><linearGradient id="j" x1="0.843" y1="-2.937" x2="0.426" y2="1.245" xlink:href="#e"></linearGradient><linearGradient id="k" x1="0" y1="0.5" x2="1" y2="0.5" xlink:href="#e"></linearGradient><linearGradient id="n" x1="0.509" y1="-0.158" x2="0.493" y2="0.972" xlink:href="#a"></linearGradient><linearGradient id="o" x1="0.638" y1="-0.554" x2="0.629" y2="0.546" gradientUnits="objectBoundingBox"><stop offset="0" stop-color="#eef1f9"></stop><stop offset="0.067" stop-color="#e4e8f4"></stop><stop offset="0.303" stop-color="#c7cee6"></stop><stop offset="0.539" stop-color="#b3bbdc"></stop><stop offset="0.773" stop-color="#a7b0d6"></stop><stop offset="1" stop-color="#a3add5"></stop></linearGradient><linearGradient id="p" x1="-0.239" y1="0.217" x2="0.737" y2="0.217" gradientUnits="objectBoundingBox"><stop offset="0" stop-color="#eef1f9"></stop><stop offset="0.034" stop-color="#e6e9f3"></stop><stop offset="0.201" stop-color="#c7cbde"></stop><stop offset="0.375" stop-color="#afb3ce"></stop><stop offset="0.559" stop-color="#9ea2c2"></stop><stop offset="0.758" stop-color="#9498bb"></stop><stop offset="1" stop-color="#9195b9"></stop></linearGradient><linearGradient id="q" x1="0.153" y1="0.216" x2="1.113" y2="0.216" xlink:href="#a"></linearGradient><linearGradient id="r" x1="0.227" y1="-5.937" x2="0.536" y2="1.351" gradientUnits="objectBoundingBox"><stop offset="0" stop-color="#d44242"></stop><stop offset="1" stop-color="#e3383c"></stop></linearGradient></defs><g transform="translate(-620.692 2254.368)"><g transform="translate(992.164 -2057.14)"><path d="M1314.136-1744.819c5.424-6.557,12.826-11.814,15.381-20.16,3.02-9.851-1.788-20.665.129-30.828,2.411-12.787,14.307-20.492,21.139-31.271,6.693-10.565,4.049-14.393,5.324-27.087,1.919-19.132,17.771-42.524,36.7-34.938,19.216,7.707,14.9,27.308,10.612,42-3.057,10.457-1.54,12.073.245,22.821,2.159,12.99,10.756,25.909,6.162,38.2-2.841,7.6-10.118,12.427-13.081,19.975-3.355,8.549-.42,18.2.392,27.409,1.726,19.4-3.213,35.168-16.982,50.326a52.167,52.167,0,0,1-5.125,4.165c-17.746-1.99-37.556-4.012-59.11-6.028-.283-.348-.554-.7-.824-1.06C1304.115-1705.931,1301.955-1730.09,1314.136-1744.819Z" transform="translate(-1305.891 1890.57)" fill="#5586c5" fill-rule="evenodd"></path><g transform="translate(27.693 17.282)"><path d="M1406.322-1857.689a1.515,1.515,0,0,1,2.054-.857,1.736,1.736,0,0,1,.772,2.222,128.611,128.611,0,0,0-4.691,13.408c.468-.407.948-.8,1.447-1.191a35.732,35.732,0,0,1,7.432-4.407,1.5,1.5,0,0,1,2.011.923,1.748,1.748,0,0,1-.866,2.194,32.4,32.4,0,0,0-6.792,4.018,27.762,27.762,0,0,0-5.014,5.033c-2.561,10.146-4.478,21.113-6.3,32.68a59.71,59.71,0,0,1,6.2-7.825,40.832,40.832,0,0,1,12.291-9.063,1.493,1.493,0,0,1,2.029.875,1.745,1.745,0,0,1-.825,2.207,37.779,37.779,0,0,0-11.347,8.393,63.631,63.631,0,0,0-9.628,13.662l-.477,3.142c-1.051,6.9-2.133,13.971-3.34,21.187-.007.072-.021.141-.033.209-1.269,7.541-2.68,15.24-4.358,23.051a96.257,96.257,0,0,1,11.641-14.268,66.2,66.2,0,0,1,19.422-13.708,1.5,1.5,0,0,1,2.024.9,1.759,1.759,0,0,1-.852,2.2,62.963,62.963,0,0,0-18.5,13.072,100.958,100.958,0,0,0-15.871,21.209,296.814,296.814,0,0,1-9.353,31.4l0,0-.015.039,0,0q-2.816,7.781-6.247,15.594a90.929,90.929,0,0,1,15.562-10.478,85.969,85.969,0,0,1,24.177-8.49,1.551,1.551,0,0,1,1.789,1.365,1.693,1.693,0,0,1-1.274,1.952,83.061,83.061,0,0,0-23.354,8.191,90.144,90.144,0,0,0-20.314,14.865q-2.505,5.183-5.33,10.356l-3.41-.338a235.956,235.956,0,0,0,15.463-34.074,70.151,70.151,0,0,0-1.3-24.746,93.343,93.343,0,0,0-10.362-25.64,1.781,1.781,0,0,1,.5-2.321,1.473,1.473,0,0,1,2.134.519,96.947,96.947,0,0,1,10.735,26.6,76.349,76.349,0,0,1,1.92,14.895c5.675-17.952,9.255-35.616,12.1-52.5a111.49,111.49,0,0,0-5.054-18.625,39.9,39.9,0,0,0-6.614-11.88,1.785,1.785,0,0,1,.068-2.378,1.465,1.465,0,0,1,2.19.055,43.105,43.105,0,0,1,7.226,12.891,98.009,98.009,0,0,1,3.55,11.576q1.061-6.7,2.037-13.194l.512-3.373c.01-.059.019-.124.032-.182C1395.614-1819.306,1399.025-1840.2,1406.322-1857.689Z" transform="translate(-1356.973 1858.692)" fill="#fff" fill-rule="evenodd"></path></g><g transform="translate(44.481 77.392)"><path d="M1403.025-1667.5c5.551-2.841,12.118-4.135,16.174-9.15,4.782-5.922,4.4-15.03,8.5-21.517,5.167-8.17,15.519-9.733,23.207-15.076,7.519-5.234,6.736-8.759,11.081-17.228,6.557-12.764,23.94-24.02,35-12.629,11.23,11.572,2.884,23.892-4.1,32.781-4.979,6.332-4.361,7.949-6.061,16.042-2.043,9.775.391,21.579-6.148,28.694-4.048,4.4-10.414,5.435-14.53,9.76-4.658,4.9-5.256,12.591-7.2,19.3l-.079.27c-3.718,12.584-13.753,21.81-25.768,23.843-32.169,5.445-41.459,2.25-40.323-8.578a34.191,34.191,0,0,1-3.7-8.773C1385.455-1643.529,1390.552-1661.12,1403.025-1667.5Z" transform="translate(-1387.939 1747.817)" fill-rule="evenodd" fill="url(#a)"></path></g><g transform="translate(54.708 90.345)"><path d="M1494.185-1723.581a1.111,1.111,0,0,1,1.66.061,1.355,1.355,0,0,1-.072,1.8,90.76,90.76,0,0,0-6.916,7.874q.656-.2,1.329-.369a25.058,25.058,0,0,1,6.359-.691,1.213,1.213,0,0,1,1.145,1.289,1.234,1.234,0,0,1-1.2,1.255,23.118,23.118,0,0,0-5.813.629,19.207,19.207,0,0,0-4.852,1.907c-4.547,6.274-8.869,13.323-13.293,20.825a41.017,41.017,0,0,1,6.437-3.472,28.607,28.607,0,0,1,11-2.387,1.212,1.212,0,0,1,1.171,1.267,1.242,1.242,0,0,1-1.175,1.279,26.461,26.461,0,0,0-10.165,2.215,43.69,43.69,0,0,0-10.411,6.462l-1.188,2.039c-2.611,4.485-5.289,9.088-8.1,13.746a1,1,0,0,1-.08.133c-2.938,4.868-6.017,9.8-9.312,14.72a65.96,65.96,0,0,1,11.97-6.232,46.391,46.391,0,0,1,17.218-3.344,1.218,1.218,0,0,1,1.155,1.28,1.239,1.239,0,0,1-1.19,1.268,44.286,44.286,0,0,0-16.406,3.192,69.59,69.59,0,0,0-16.8,9.729,207.524,207.524,0,0,1-15.062,18.949l0,0-.02.022v.006q-4.082,4.527-8.592,8.895a63.738,63.738,0,0,1,13.655-2.324,62.871,62.871,0,0,1,19.091,1.836,1.271,1.271,0,0,1,.871,1.53,1.189,1.189,0,0,1-1.418.96,60.726,60.726,0,0,0-18.439-1.786,63.234,63.234,0,0,0-18.153,3.863c-2.339,2.092-9.262,7.445-11.788,9.447l.967-3.676a162.661,162.661,0,0,0,22.053-20.435,52.354,52.354,0,0,0,5.855-17.719,74.084,74.084,0,0,0-.191-21.265,1.275,1.275,0,0,1,.979-1.462,1.181,1.181,0,0,1,1.341,1.05,76.823,76.823,0,0,1,.185,22.051,57.581,57.581,0,0,1-2.732,11.032,272.842,272.842,0,0,0,22.727-32.827,86.947,86.947,0,0,0,1.576-14.65,32.122,32.122,0,0,0-1.349-10.433,1.323,1.323,0,0,1,.7-1.642,1.145,1.145,0,0,1,1.506.743,34.91,34.91,0,0,1,1.491,11.34,76.564,76.564,0,0,1-.695,9.235q2.563-4.342,5.014-8.57l1.276-2.191a1.011,1.011,0,0,1,.073-.121C1476.281-1700.18,1484.347-1713.694,1494.185-1723.581Z" transform="translate(-1406.803 1723.923)" fill="#fff" fill-rule="evenodd"></path></g></g><g transform="translate(680.305 -2254.368)"><g transform="translate(0)"><path d="M742.007-2254.368h278.835a11.863,11.863,0,0,1,11.78,11.566l7.063,383.552a11.343,11.343,0,0,1-11.352,11.565H749.495a11.862,11.862,0,0,1-11.779-11.565L730.653-2242.8A11.346,11.346,0,0,1,742.007-2254.368Z" transform="translate(-730.651 2254.368)" fill-rule="evenodd" fill="url(#b)"></path><g transform="translate(0.617 0.608)"><path d="M1021.256-2253.246H742.421a10.867,10.867,0,0,0-1.993.183,10.567,10.567,0,0,0-5.578,2.964,10.588,10.588,0,0,0-2.9,5.622,10.908,10.908,0,0,0-.162,2.077l7.063,383.551a11.257,11.257,0,0,0,3.4,7.818,11.234,11.234,0,0,0,7.866,3.254h278.836a10.7,10.7,0,0,0,2-.183,10.583,10.583,0,0,0,5.575-2.961,10.6,10.6,0,0,0,2.9-5.624,10.785,10.785,0,0,0,.161-2.076l-7.062-383.55a11.253,11.253,0,0,0-3.4-7.817A11.235,11.235,0,0,0,1021.256-2253.246Z" transform="translate(-731.789 2253.246)" fill-rule="evenodd" fill="url(#c)"></path></g><g transform="translate(16.152 15.782)"><path d="M1037.181-1850.126H767.35L760.89-2200.8l-.446-24.459h269.83Z" transform="translate(-760.444 2225.257)" fill-rule="evenodd" fill="url(#d)"></path></g><g transform="translate(16.152 15.754)"><path d="M1030.343-2225.308l.489,24.514-269.942-.028-.446-24.459Z" transform="translate(-760.444 2225.308)" fill="#b5d6f1" fill-rule="evenodd"></path></g></g><g transform="translate(37.146 24.872)"><path d="M802.975-2208.49a3.805,3.805,0,0,1,3.8,3.805,3.805,3.805,0,0,1-3.8,3.805,3.806,3.806,0,0,1-3.806-3.805A3.806,3.806,0,0,1,802.975-2208.49Z" transform="translate(-799.169 2208.49)" fill="#fff" fill-rule="evenodd"></path></g><g transform="translate(53.629 24.872)"><path d="M833.378-2208.49a3.806,3.806,0,0,1,3.806,3.805,3.806,3.806,0,0,1-3.806,3.805,3.806,3.806,0,0,1-3.805-3.805A3.806,3.806,0,0,1,833.378-2208.49Z" transform="translate(-829.573 2208.49)" fill="#fff" fill-rule="evenodd"></path></g><g transform="translate(70.113 24.872)"><path d="M863.784-2208.49a3.806,3.806,0,0,1,3.805,3.805,3.806,3.806,0,0,1-3.805,3.805,3.805,3.805,0,0,1-3.8-3.805A3.805,3.805,0,0,1,863.784-2208.49Z" transform="translate(-859.979 2208.49)" fill="#fff" fill-rule="evenodd"></path></g></g><g transform="translate(748.365 -2067.692)"><g transform="translate(165.603 40.45)"><rect width="22.388" height="135.007" fill="url(#e)"></rect></g><g transform="translate(132.486 59.932)"><rect width="22.388" height="115.525" fill="url(#f)"></rect></g><g transform="translate(99.359 79.419)"><rect width="22.395" height="96.038" fill="url(#g)"></rect></g><g transform="translate(66.242 94.617)"><rect width="22.387" height="80.84" fill="url(#h)"></rect></g><g transform="translate(33.117 118.383)"><rect width="22.394" height="57.074" fill="url(#i)"></rect></g><g transform="translate(0 137.864)"><rect width="22.387" height="37.593" fill="url(#j)"></rect></g><g transform="translate(5.501 5.942)"><path d="M869.911-1780.022l-3.573-2.54,32.689-45.945,25,8.881,49.979-48.442,13.34,9.816,47.934-40.823,2.843,3.338-50.577,43.074-13.154-9.673-49.271,47.751-24.446-8.682Z" transform="translate(-866.338 1899.074)" fill-rule="evenodd" fill="url(#k)"></path></g><g transform="translate(165.306 0)"><path d="M1172.694-1892.281l-1.669-9.457-8.693-4.073,18.84-3.7Z" transform="translate(-1161.668 1909.794)" fill-rule="evenodd" fill="url(#k)"></path><path d="M1172.039-1891.859l-1.761-9.978-9.171-4.3,19.877-3.9Zm-9.6-14.112,8.215,3.849,1.577,8.936,8.012-16.279Z" transform="translate(-1161.107 1910.035)" fill="url(#k)"></path></g></g><g transform="translate(922.249 -1995.714)"><path d="M1180.91-1777.268h119.936c2.19,0,3.98,2.214,3.98,4.916v157.42c0,2.7-1.79,4.915-3.98,4.915H1180.91c-2.188,0-3.98-2.211-3.98-4.915v-157.42C1176.93-1775.054,1178.722-1777.268,1180.91-1777.268Z" transform="translate(-1176.93 1777.268)" fill-rule="evenodd" fill="url(#n)"></path><g transform="translate(6.82 14.91)"><path d="M1190.056-1749.766h112.617a.623.623,0,0,1,.546.674v20.328a.621.621,0,0,1-.546.674H1190.056a.622.622,0,0,1-.546-.674v-20.328A.623.623,0,0,1,1190.056-1749.766Z" transform="translate(-1189.51 1749.766)" fill="#fff" fill-rule="evenodd"></path></g><g transform="translate(32.681 55.891)"><rect width="17.866" height="22.07" fill="#fff"></rect><g transform="translate(22.569)"><rect width="17.867" height="22.07" fill="#fff"></rect></g><g transform="translate(45.139)"><rect width="17.868" height="22.07" fill="#fff"></rect></g><g transform="translate(67.708)"><rect width="17.867" height="22.07" fill="#fff"></rect></g></g><g transform="translate(32.681 81.736)"><rect width="17.866" height="22.068" fill="#b6d6ef"></rect><g transform="translate(22.569)"><rect width="17.867" height="22.068" fill="#b6d6ef"></rect></g><g transform="translate(45.139)"><rect width="17.868" height="22.068" fill="#b6d6ef"></rect></g><g transform="translate(67.708)"><rect width="17.867" height="22.068" fill="#b6d6ef"></rect></g></g><g transform="translate(32.681 107.578)"><rect width="17.866" height="22.068" fill="#b6d6ef"></rect><g transform="translate(22.569)"><rect width="17.867" height="22.068" fill="#b6d6ef"></rect></g><g transform="translate(45.139)"><rect width="17.868" height="22.068" fill="#b6d6ef"></rect></g><g transform="translate(67.708)"><rect width="17.867" height="22.068" fill="#b6d6ef"></rect></g></g><g transform="translate(32.681 133.42)"><rect width="17.866" height="22.068" fill="#b6d6ef"></rect><g transform="translate(22.569)"><rect width="17.867" height="22.068" fill="#b6d6ef"></rect></g><g transform="translate(45.139)"><rect width="17.868" height="22.068" fill="#b6d6ef"></rect></g><g transform="translate(67.708)"><rect width="17.867" height="22.068" fill="#b6d6ef"></rect></g></g><g transform="translate(9.874 56.182)"><path d="M1201.726-1673.637h6.114c3.621,0,6.58,3.657,6.58,8.13h0c0,4.473-2.959,8.13-6.58,8.13h-6.114c-3.62,0-6.583-3.657-6.583-8.13h0C1195.143-1669.98,1198.106-1673.637,1201.726-1673.637Z" transform="translate(-1195.143 1673.637)" fill="#fff" fill-rule="evenodd"></path></g><g transform="translate(9.874 84.059)"><path d="M1201.726-1622.216h6.114c3.621,0,6.58,3.657,6.58,8.13h0c0,4.47-2.959,8.128-6.58,8.128h-6.114c-3.62,0-6.583-3.657-6.583-8.128h0C1195.143-1618.559,1198.106-1622.216,1201.726-1622.216Z" transform="translate(-1195.143 1622.216)" fill="#fff" fill-rule="evenodd"></path></g><g transform="translate(9.874 111.934)"><path d="M1201.726-1570.8h6.114c3.621,0,6.58,3.659,6.58,8.13h0c0,4.47-2.959,8.13-6.58,8.13h-6.114c-3.62,0-6.583-3.66-6.583-8.13h0C1195.143-1567.141,1198.106-1570.8,1201.726-1570.8Z" transform="translate(-1195.143 1570.8)" fill="#fff" fill-rule="evenodd"></path></g><g transform="translate(31.13 19.52)"><path d="M1236.044-1733.093v5.426l-1.693-2.082v-2.821l1.056-1.3.637.78Zm-1.693-2.874v-2.822l1.693-2.086v5.431l-.637.8-1.056-1.324Zm11.184-5.3-1.686,2.091h-3.172l-1.685-2.091Zm0,13.989h-6.543l1.685-2.091h3.172l1.686,2.091Zm-5.175-5.306-1.056-1.292-.633.777v5.416l1.689-2.1v-2.8Zm-1.689-2.861.633.8,1.056-1.319v-2.824l-1.689-2.066v5.411Zm7.175,2.348-.635-.78-1.056,1.3v2.809l1.692,2.1v-5.426Zm-1.692-2.876,1.056,1.327.635-.8v-5.426l-1.692,2.067v2.834Zm10.448-5.294-1.687,2.091h-3.172l-1.684-2.091Zm0,13.989h-6.544l1.684-2.091h3.172l1.687,2.091Zm-5.175-5.306-1.056-1.292-.635.777v5.416l1.691-2.1v-2.8Zm-1.691-2.861.635.8,1.056-1.319v-2.824l-1.691-2.066v5.411Zm7.174,2.348-.633-.78-1.056,1.3v2.809l1.689,2.1v-5.426Zm-1.689-2.876,1.056,1.327.633-.8v-5.426l-1.689,2.067v2.834Zm10.446-5.294-1.687,2.091h-3.171l-1.683-2.091Zm0,13.989h-6.542l1.683-2.091h3.171l1.688,2.091Zm-5.173-5.306-1.057-1.292-.637.777v5.416l1.694-2.1v-2.8Zm-1.694-2.861.637.8,1.057-1.319v-2.824l-1.694-2.066v5.411Zm7.176,2.348-.633-.78-1.056,1.3v2.809l1.689,2.1v-5.426Zm-1.689-2.876,1.056,1.327.633-.8v-5.426l-1.689,2.067v2.834Zm10.444-5.294-1.686,2.091h-3.173l-1.681-2.091Zm0,13.989h-6.539l1.681-2.091h3.173l1.686,2.091Zm-5.171-5.306-1.058-1.292-.635.777v5.416l1.693-2.1v-2.8Zm-1.693-2.861.635.8,1.058-1.319v-2.824l-1.693-2.066v5.411Zm7.176,2.348-.635-.78-1.056,1.3v2.809l1.691,2.1v-5.426Zm-1.691-2.876,1.056,1.327.635-.8v-5.426l-1.691,2.067v2.834Zm10.446-5.294-1.685,2.091h-3.173l-1.683-2.091Zm0,13.989h-6.542l1.683-2.091h3.173l1.685,2.091Zm-5.173-5.306-1.056-1.292-.635.777v5.416l1.691-2.1v-2.8Zm-1.691-2.861.635.8,1.056-1.319v-2.824l-1.691-2.066v5.411Zm7.176,2.348-.637-.78-1.057,1.3v2.809l1.694,2.1v-5.426Zm-1.694-2.876,1.057,1.327.637-.8v-5.426l-1.694,2.067v2.834Zm10.448-5.294-1.685,2.091h-3.173l-1.683-2.091Zm0,13.989h-6.541l1.683-2.091h3.173l1.685,2.091Zm-5.174-5.306-1.057-1.292-.633.777v5.416l1.689-2.1v-2.8Zm-1.689-2.861.633.8,1.057-1.319v-2.824l-1.689-2.066v5.411Zm7.174,2.348-.635-.78-1.056,1.3v2.809l1.691,2.1v-5.426Zm-1.691-2.876,1.056,1.327.635-.8v-5.426l-1.691,2.067v2.834Zm10.447-5.294-1.687,2.091h-3.173l-1.683-2.091Zm0,13.989h-6.543l1.683-2.091h3.173l1.687,2.091Zm-5.174-5.306-1.057-1.292-.635.777v5.416l1.692-2.1v-2.8Zm-1.692-2.861.635.8,1.057-1.319v-2.824l-1.692-2.066v5.411Zm7.175,2.348-.633-.78-1.056,1.3v2.809l1.689,2.1v-5.426Zm-1.689-2.876,1.056,1.327.633-.8v-5.426l-1.689,2.067v2.834Zm10.446-5.294-1.686,2.091h-3.172l-1.683-2.091Zm0,13.989h-6.542l1.683-2.091h3.172l1.686,2.091Zm-5.173-5.306-1.057-1.292-.637.777v5.416l1.694-2.1v-2.8Zm-1.694-2.861.637.8,1.057-1.319v-2.824l-1.694-2.066v5.411Zm7.176,2.348-.633-.78-1.058,1.3v2.809l1.691,2.1v-5.426Zm-1.691-2.876,1.058,1.327.633-.8v-5.426l-1.691,2.067v2.834Zm10.446-5.294-1.686,2.091h-3.173l-1.681-2.091Zm0,13.989h-6.54l1.681-2.091h3.173l1.686,2.091Zm-5.171-5.306-1.058-1.292-.635.777v5.416l1.693-2.1v-2.8Zm-1.693-2.861.635.8,1.058-1.319v-2.824l-1.693-2.066v5.411Zm7.176,2.348-.635-.78-1.056,1.3v2.809l1.691,2.1v-5.426Zm-1.691-2.876,1.056,1.327.635-.8v-5.426l-1.691,2.067Z" transform="translate(-1234.351 1741.263)" fill="#8dbada" fill-rule="evenodd"></path></g></g><g transform="translate(732.188 -2138.31)"><g transform="translate(0)"><path d="M829.954-2040.292l201.957.011c2.011,0,3.663.451,3.674,1h0c.011.551-1.623,1-3.634,1l-201.96-.019c-1.992,0-3.63-.448-3.639-1h0C826.341-2039.844,827.961-2040.292,829.954-2040.292Z" transform="translate(-826.351 2040.292)" fill="#76abdd" fill-rule="evenodd"></path></g><g transform="translate(0.361 19.515)"><path d="M830.621-2004.3l201.986.093c2.011,0,3.663.452,3.674,1h0c.011.551-1.623,1-3.634,1l-201.989-.1c-1.993,0-3.63-.45-3.64-1h0C827.007-2003.849,828.628-2004.3,830.621-2004.3Z" transform="translate(-827.017 2004.296)" fill="#76abdd" fill-rule="evenodd"></path></g><g transform="translate(0.015 38.812)"><path d="M830.008-1968.7l202.678.21c2.021,0,3.68.454,3.691,1v0c.011.55-1.63,1-3.651,1l-202.715-.221c-2,0-3.632-.451-3.632-1v0C826.378-1968.258,828.01-1968.7,830.008-1968.7Z" transform="translate(-826.378 1968.702)" fill="#76abdd" fill-rule="evenodd"></path></g><g transform="translate(1.083 58.454)"><path d="M831.953-1932.47l202.043.257c2.012,0,3.664.455,3.675,1.006v0c.011.55-1.623,1-3.635,1l-202.046-.264c-1.993,0-3.631-.453-3.641-1v0C828.338-1932.026,829.959-1932.472,831.953-1932.47Z" transform="translate(-828.348 1932.47)" fill="#76abdd" fill-rule="evenodd"></path></g><g transform="translate(1.443 77.878)"><path d="M831.847-1896.641l159,.266c1.582,0,2.883.455,2.894,1v0c.011.55-1.272,1-2.854,1l-159.007-.272c-1.57,0-2.862-.454-2.872-1v0C829-1896.2,830.277-1896.643,831.847-1896.641Z" transform="translate(-829.012 1896.641)" fill="#76abdd" fill-rule="evenodd"></path></g><g transform="translate(1.732 93.488)"><path d="M832.056-1867.848l140.841.281c1.4,0,2.554.456,2.565,1.005v0c.01.55-1.125,1-2.525,1l-140.843-.287c-1.391,0-2.537-.454-2.547-1v0C829.536-1867.4,830.664-1867.851,832.056-1867.848Z" transform="translate(-829.546 1867.848)" fill="#76abdd" fill-rule="evenodd"></path></g></g><text transform="translate(728.482 -2169.961)" fill="#2f4c91" font-size="30" font-family="Gotham-Bold, Gotham" font-weight="700" opacity="0.29"><tspan x="0" y="0">MedsIT Nexus</tspan></text><g transform="translate(620.692 -1992.282)"><path d="M743.1-1743.231c-31.992-3.344-61.195-27.705-61.195-27.705s-33.009,20.065-58.084,19.293c0,0-18.61,92.75,34.99,137.324C733.54-1630.911,743.1-1743.231,743.1-1743.231Z" transform="translate(-620.692 1770.936)" fill="url(#o)"></path><path d="M740.246-1734.405c-29.55-3.262-56.686-26.068-56.686-26.068s-30.834,18.464-54.395,17.6c0,0-17.769,87.116,32.795,128.886C731.682-1629.993,740.246-1734.405,740.246-1734.405Z" transform="translate(-623.186 1766.145)" fill="url(#p)"></path><path d="M738.409-1730.324c-27.752-3.163-53.293-25.176-53.293-25.176s-29.269,17.755-51.686,16.884c0,0-17.286,84.547,30.8,124.759C730.168-1629.854,738.409-1730.324,738.409-1730.324Z" transform="translate(-625.14 1763.868)" fill="#051638"></path><path d="M737.19-1726.87c-26.961-3.141-51.82-24.668-51.82-24.668s-28.543,17.253-50.445,16.351c0,0-16.987,82.744,30.047,122.075C729.241-1628.878,737.19-1726.87,737.19-1726.87Z" transform="translate(-625.841 1762.054)" fill="url(#q)"></path><path d="M713.271-1751.538l-20.4,138.427c64.268-15.767,72.218-113.759,72.218-113.759C738.131-1730.011,713.272-1751.537,713.271-1751.538Z" transform="translate(-653.741 1762.054)" fill="#1e376a"></path><g transform="translate(29.372 62.818)"><path d="M688.274-1618.315c-.066-.013-.131-.026-.2-.04a6.214,6.214,0,0,1-4.118-3.574l-8.6-17.638a5.626,5.626,0,0,1,.932-6.038c1.449-1.455,3.389-1.092,4.325.822l8.711,17.821a.236.236,0,0,0,.16.138.191.191,0,0,0,.2-.063l28.835-27.181a2.931,2.931,0,0,1,4.915.8,5.868,5.868,0,0,1-1.241,6.546l-29.079,26.8A5.616,5.616,0,0,1,688.274-1618.315Z" transform="translate(-674.871 1655.066)" fill="#fff"></path></g></g><rect width="16.651" height="22.305" rx="3.929" transform="translate(933.672 -1862.513)" fill="url(#r)"></rect></g></svg>