<?xml version="1.0" encoding="utf-8"?>
<!-- Generator: Adobe Illustrator 24.1.1, SVG Export Plug-In . SVG Version: 6.00 Build 0)  -->
<svg version="1.1" id="Layer_1" xmlns="http://www.w3.org/2000/svg" xmlns:xlink="http://www.w3.org/1999/xlink" x="0px" y="0px"
	 viewBox="0 0 1389.3 230.6" style="enable-background:new 0 0 1389.3 230.6;" xml:space="preserve">
<style type="text/css">
	.st0{fill:#273775;}
</style>
<g id="Layer_2_1_">
	<g id="Layer_1-2">
		<path class="st0" d="M292.3,138.6c4.9,11.3,4.9,24,0,35.3L276,211.6c-7,16-25.6,23.4-41.6,16.5l-2.5-1.1
			c-14.2-6.2-21.9-21.7-18.1-36.7l30.1-69.7c0.5-1.1,0.9-2.3,1.1-3.6c1.3-7.4-2.6-14.7-9.4-17.6c-2-0.9-4.2-1.3-6.3-1.3
			c-6,0-11.4,3.3-14.2,8.5c-0.2,0.4-0.4,0.8-0.6,1.2l-45.6,105.4c-7.5,15-25.4,21.5-40.9,14.9l-2.5-1.1c-7.6-3.3-13.5-9.4-16.6-17
			l-22.5-52l-23.2,53.6c-7,16-25.6,23.4-41.6,16.5l-2.5-1.1c-16-7-23.4-25.6-16.5-41.6L74.4,19.1c7-16,25.6-23.4,41.6-16.5l2.5,1.1
			c14.1,6.1,21.7,21.4,18.2,36.3l-29,67.1c-0.5,1.2-0.9,2.5-1.1,3.8c-1.5,8.8,4.5,17,13.2,18.5c7.3,1.2,14.5-2.7,17.4-9.5
			l43.6-100.8c7-16,25.6-23.4,41.6-16.5l2.5,1.1c6.1,2.6,11.2,7.1,14.6,12.9l0,0l3.2,7.5L264,73L292.3,138.6z"/>
		<polygon class="st0" points="331.8,52.9 315.9,52.9 315.9,37 296.3,37 296.3,52.9 280.4,52.9 280.4,72.6 296.3,72.6 296.3,88.5 
			315.9,88.5 315.9,72.6 331.8,72.6 		"/>
		<path class="st0" d="M439.8,61.7l-34,42.8h-4.4l-32.8-43.1v76.9h-24.5v-110h28.1l32.1,42.3l32.2-42.3h27.8v110h-24.5V61.7z"/>
		<path class="st0" d="M502.9,106.6c1.1,7.5,8.3,13.7,21.1,13.7c6.1,0,14.6-1.4,20.1-6.1l12.7,14.1c-8.3,8.2-21.7,11.5-33.3,11.5
			c-28.1,0-43.5-16.5-43.5-41.3c0-23.6,15.9-40.1,41.2-40.1c26.4,0,43.7,16.5,38.8,48.3L502.9,106.6z M539.7,90.1
			c-0.5-8.5-9.1-12.4-18.5-12.4c-9.1,0-16,4.7-18.2,12.4H539.7z"/>
		<path class="st0" d="M656.5,28.2v109.9h-20.3l-1.4-9.9c-7.2,9.3-16,11.3-25.8,11.3c-22.8,0-38.4-16-38.4-40.2
			c0-25.2,15.9-40.4,38.7-40.4c9.1,0,17.8,2.8,24.4,11V28.2H656.5z M593.4,99.2c0,11.2,6.9,20,19,20c10.2,0,20.9-5.2,20.9-20
			c0-13-10.5-20-20.9-20C600.8,79.3,593.4,87.6,593.4,99.2z"/>
		<path class="st0" d="M724.5,82.4c-5.3-3.9-11.8-5.9-18.4-5.7c-7.4,0-11.2,2.7-11.2,6.4c0,4.3,3.9,6.6,11.5,6.8
			c15.3,0.5,33.7,3.6,33.8,25c0.2,12.6-9.3,26.1-34,26.1c-11.5,0-23.3-2.2-36.5-13.2l9.8-16c9.6,7.9,18.9,9.6,27,9.8
			c6.6,0.2,11.8-2.5,11.6-6.6c0-3.6-2.7-6.6-13.2-6.9c-14.5-0.6-32.5-6.6-32.5-24.8c0-17.6,16.7-25,33.5-25c12,0,21.5,3,29.7,10.1
			L724.5,82.4z"/>
		<path class="st0" d="M755,138.1V28h24.4v110.1H755z"/>
		<path class="st0" d="M827.8,49.9h-33.5V28h91.3v21.9h-33.5v88.2h-24.4V49.9z"/>
		<path class="st0" d="M1010.2,99.6l-1.6-34.6V28h24.7v110.1h-21.1l-54.7-70.4l1,36.2v34.3h-24.9V28h21.1L1010.2,99.6z"/>
		<path class="st0" d="M1071.8,106.6c1.1,7.5,8.3,13.7,21.1,13.7c6.1,0,14.6-1.4,20.1-6.1l12.7,14.1c-8.3,8.2-21.7,11.5-33.3,11.5
			c-28.1,0-43.6-16.5-43.6-41.3c0-23.6,15.9-40.1,41.2-40.1c26.4,0,43.7,16.5,38.8,48.3L1071.8,106.6z M1108.6,90.1
			c-0.5-8.5-9.1-12.4-18.6-12.4c-9.1,0-16,4.7-18.2,12.4H1108.6z"/>
		<path class="st0" d="M1188.5,60.6h27v0.8l-24.7,37.7l26.2,38.5v0.5h-27l-14.4-23.3l-14.2,23.3h-27.2v-0.5l26.3-38.5l-24.8-37.7
			v-0.8h27l12.9,23.1L1188.5,60.6z"/>
		<path class="st0" d="M1249.5,60.4v41c0,12,5.2,18.1,16,18.1c10.5,0.2,17.6-9,17.6-19V60.4h22.3v77.7H1285l-0.8-10.2
			c-6.9,9.3-15.7,12-25.2,11.8c-17.4,0-32.4-7.9-32.4-38V60.4H1249.5z"/>
		<path class="st0" d="M1373.5,82.4c-5.3-3.9-11.8-5.9-18.4-5.7c-7.4,0-11.2,2.7-11.2,6.4c0,4.3,3.9,6.6,11.5,6.8
			c15.3,0.5,33.7,3.6,33.8,25c0.2,12.6-9.3,26.1-34,26.1c-11.5,0-23.3-2.2-36.5-13.2l9.8-16c9.6,7.9,18.9,9.6,27,9.8
			c6.6,0.2,11.8-2.5,11.6-6.6c0-3.6-2.7-6.6-13.2-6.9c-14.5-0.6-32.6-6.6-32.6-24.8c0-17.6,16.7-25,33.5-25c12,0,21.5,3,29.7,10.1
			L1373.5,82.4z"/>
		<path class="st0" d="M362.6,187.2c4.3,4.1,4.5,11,0.4,15.3c-0.1,0.1-0.3,0.3-0.4,0.4c-2.3,1.9-5.4,2.8-9.4,2.9h-8.4v9.9h-3.3
			v-31.4h11.7C357.2,184.3,360.4,185.3,362.6,187.2z M360.3,200.8c1.7-1.4,2.6-3.6,2.5-5.8c0.1-2.2-0.8-4.4-2.5-5.8
			c-1.6-1.3-4-2-7.1-2h-8.3v15.7h8.3C356.3,202.9,358.6,202.2,360.3,200.8z"/>
		<path class="st0" d="M381.2,193.2c1.7-0.9,3.6-1.3,5.5-1.2v3.1h-0.8c-2.2-0.1-4.3,0.7-5.8,2.3c-1.5,1.8-2.2,4.1-2.1,6.4v12h-3.2
			v-23.6h3v4.6C378.6,195.2,379.7,194,381.2,193.2z"/>
		<path class="st0" d="M415.6,204.9h-19.6c0.1,2.3,1.1,4.4,2.8,5.9c1.8,1.5,4.1,2.3,6.4,2.3c1.4,0,2.7-0.3,4-0.8
			c1.2-0.5,2.3-1.3,3.2-2.3l1.8,2.1c-1.1,1.3-2.4,2.2-3.9,2.9c-1.6,0.7-3.4,1-5.2,1c-2.2,0-4.4-0.5-6.4-1.5c-1.8-1-3.3-2.5-4.4-4.3
			c-1.1-1.9-1.6-4-1.6-6.2c0-2.2,0.5-4.3,1.5-6.2c1-1.8,2.4-3.2,4.1-4.3c1.8-1,3.8-1.5,5.9-1.5c2.1,0,4.1,0.5,5.9,1.5
			c1.7,1,3.1,2.5,4.1,4.2c1,1.9,1.5,4,1.5,6.2L415.6,204.9z M398.6,196.9c-1.6,1.5-2.5,3.5-2.6,5.7h16.6c-0.1-2.2-1.1-4.2-2.6-5.7
			C406.7,194,401.8,194,398.6,196.9L398.6,196.9z"/>
		<path class="st0" d="M461.3,194.5c1.7,1.7,2.5,4.2,2.5,7.5v13.7h-3.2v-13.4c0.1-2-0.5-4-1.8-5.6c-1.3-1.3-3.1-2-5-1.9
			c-2.2-0.1-4.3,0.7-5.8,2.3c-1.5,1.7-2.2,4-2.1,6.3v12.4h-3.2v-13.3c0.1-2-0.5-4-1.8-5.6c-1.3-1.3-3.1-2-5-1.9
			c-2.1-0.1-4.2,0.7-5.7,2.3c-1.5,1.7-2.3,4-2.1,6.3v12.4h-3.2v-23.6h3v4.3c0.8-1.4,2-2.6,3.5-3.3c1.6-0.8,3.4-1.2,5.1-1.2
			c1.8,0,3.6,0.4,5.1,1.3c1.5,0.9,2.6,2.2,3.2,3.7c0.9-1.6,2.2-2.8,3.7-3.6c1.7-0.9,3.6-1.4,5.6-1.3
			C456.9,191.8,459.4,192.7,461.3,194.5z"/>
		<path class="st0" d="M475.3,186.3c-0.4-0.4-0.7-1-0.7-1.6c0-0.6,0.2-1.2,0.7-1.6c0.4-0.4,1-0.7,1.7-0.7c0.6,0,1.2,0.2,1.6,0.6
			c0.4,0.4,0.7,1,0.7,1.6c0,1.3-1,2.3-2.3,2.4C476.4,187,475.8,186.8,475.3,186.3L475.3,186.3z M475.4,192.1h3.2v23.6h-3.2V192.1z"
			/>
		<path class="st0" d="M510.8,204.9h-19.6c0.1,2.3,1.1,4.4,2.8,5.9c1.8,1.5,4.1,2.3,6.4,2.3c1.4,0,2.7-0.3,4-0.8
			c1.2-0.5,2.3-1.3,3.2-2.3l1.8,2.1c-1.1,1.3-2.4,2.2-3.9,2.9c-1.6,0.7-3.4,1-5.2,1c-2.2,0-4.4-0.5-6.4-1.5c-1.8-1-3.3-2.5-4.4-4.3
			c-1.1-1.9-1.6-4-1.6-6.2c0-2.2,0.5-4.3,1.5-6.2c1-1.8,2.4-3.2,4.1-4.3c1.8-1,3.8-1.5,5.9-1.5c2.1,0,4.1,0.5,5.9,1.5
			c1.7,1,3.1,2.5,4.1,4.2c1,1.9,1.5,4,1.5,6.2L510.8,204.9z M493.8,196.9c-1.6,1.5-2.5,3.5-2.6,5.7h16.7c-0.1-2.2-1.1-4.2-2.6-5.7
			C502,194,497.1,194,493.8,196.9L493.8,196.9z"/>
		<path class="st0" d="M526.6,193.2c1.7-0.9,3.6-1.3,5.5-1.2v3.1h-0.8c-2.2-0.1-4.3,0.7-5.8,2.3c-1.5,1.8-2.2,4.1-2.1,6.4v12h-3.2
			v-23.6h3v4.6C524,195.2,525.2,193.9,526.6,193.2z"/>
		<path class="st0" d="M588.9,184.3v31.4h-3.2v-25.1l-12.3,21.1h-1.6l-12.3-21v24.9h-3.2v-31.3h2.7l13.6,23.3l13.4-23.3H588.9z"/>
		<path class="st0" d="M621.8,204.9h-19.7c0.1,2.3,1.1,4.4,2.8,5.9c1.8,1.5,4.1,2.3,6.4,2.3c1.4,0,2.7-0.3,4-0.8
			c1.2-0.5,2.3-1.3,3.2-2.3l1.8,2.1c-1.1,1.3-2.4,2.2-3.9,2.9c-1.6,0.7-3.4,1-5.2,1c-2.2,0-4.4-0.5-6.4-1.5c-1.8-1-3.3-2.5-4.4-4.3
			c-1.1-1.9-1.6-4-1.6-6.2c0-2.2,0.5-4.3,1.5-6.2c0.9-1.8,2.4-3.2,4.1-4.3c1.8-1,3.8-1.5,5.9-1.5c2.1,0,4.1,0.5,5.8,1.5
			c1.7,1,3.1,2.5,4.1,4.2c1,1.9,1.5,4,1.5,6.2L621.8,204.9z M604.8,196.9c-1.6,1.5-2.5,3.5-2.6,5.7h16.7c-0.1-2.2-1.1-4.2-2.6-5.7
			C613,194,608.1,194,604.8,196.9z"/>
		<path class="st0" d="M652.7,182.4v33.2h-3V211c-0.9,1.5-2.2,2.8-3.8,3.6c-1.6,0.8-3.5,1.3-5.3,1.3c-2.1,0-4.2-0.5-6-1.5
			c-1.8-1-3.2-2.5-4.2-4.3c-2-3.9-2-8.5,0-12.4c1-1.8,2.4-3.2,4.2-4.2c1.8-1,3.9-1.5,6-1.5c1.8,0,3.6,0.4,5.2,1.2
			c1.5,0.8,2.8,2,3.8,3.5v-14.1H652.7z M645.3,211.9c1.3-0.8,2.4-1.9,3.1-3.3c1.5-3,1.5-6.6,0-9.6c-0.7-1.4-1.8-2.5-3.1-3.3
			c-1.4-0.8-2.9-1.2-4.4-1.1c-1.6,0-3.1,0.4-4.5,1.1c-1.3,0.8-2.4,1.9-3.1,3.3c-1.5,3-1.5,6.6,0,9.6c0.7,1.4,1.8,2.5,3.1,3.3
			c1.4,0.8,2.9,1.2,4.5,1.1C642.5,213.1,644,212.8,645.3,211.9L645.3,211.9z"/>
		<path class="st0" d="M664.5,186.3c-0.4-0.4-0.7-1-0.7-1.6c0-0.6,0.2-1.2,0.7-1.6c0.4-0.4,1-0.7,1.7-0.7c0.6,0,1.2,0.2,1.7,0.6
			c0.4,0.4,0.7,1,0.7,1.6c0,1.3-1,2.3-2.3,2.4C665.5,187,664.9,186.8,664.5,186.3L664.5,186.3z M664.5,192.1h3.2v23.6h-3.2V192.1z"
			/>
		<path class="st0" d="M683,214.4c-1.8-1-3.3-2.5-4.3-4.3c-1.1-1.9-1.6-4-1.6-6.2c0-2.2,0.5-4.3,1.6-6.2c1-1.8,2.5-3.3,4.3-4.3
			c1.9-1,4.1-1.6,6.2-1.5c1.9,0,3.7,0.4,5.4,1.2c1.6,0.8,2.9,2,3.8,3.5l-2.4,1.6c-0.7-1.1-1.7-2-3-2.6c-1.2-0.6-2.5-0.9-3.9-0.9
			c-1.6,0-3.2,0.4-4.6,1.1c-1.4,0.7-2.5,1.9-3.2,3.3c-1.5,3-1.5,6.6,0,9.6c0.7,1.4,1.8,2.5,3.2,3.2c1.4,0.8,3,1.2,4.6,1.1
			c1.3,0,2.7-0.3,3.9-0.9c1.2-0.6,2.2-1.5,3-2.6l2.4,1.6c-0.9,1.5-2.2,2.7-3.8,3.5c-1.7,0.8-3.5,1.2-5.4,1.2
			C687.1,215.9,684.9,215.4,683,214.4z"/>
		<path class="st0" d="M722.8,194.3c1.6,1.5,2.5,3.8,2.5,6.8v14.6h-3V212c-0.7,1.3-1.8,2.3-3.2,2.9c-1.5,0.7-3.2,1.1-4.9,1
			c-2.2,0.1-4.4-0.5-6.3-1.9c-2.7-2.3-3.1-6.4-0.8-9.1c0.2-0.2,0.4-0.5,0.7-0.7c1.4-1.2,3.7-1.8,6.9-1.8h7.5V201
			c0.1-1.7-0.5-3.4-1.7-4.6c-1.4-1.2-3.2-1.7-5-1.6c-1.5,0-2.9,0.2-4.3,0.7c-1.3,0.4-2.5,1.1-3.5,2l-1.4-2.4
			c1.3-1.1,2.7-1.9,4.3-2.4c1.7-0.6,3.5-0.8,5.3-0.8C718.9,192,721.2,192.8,722.8,194.3z M719.3,212.2c1.3-0.9,2.3-2.1,2.9-3.6v-3.9
			h-7.4c-4,0-6,1.4-6,4.2c0,1.3,0.5,2.5,1.6,3.3c1.3,0.9,2.8,1.3,4.4,1.2C716.3,213.4,717.9,213,719.3,212.2L719.3,212.2z"/>
		<path class="st0" d="M736.9,182.4h3.2v33.2h-3.2V182.4z"/>
		<path class="st0" d="M791.6,202.2c1.2,1.5,1.8,3.3,1.7,5.1c0.1,2.4-1,4.8-3,6.2c-2,1.4-4.9,2.2-8.8,2.2h-14.3v-31.4h13.5
			c3.5,0,6.2,0.7,8.1,2.1c1.9,1.4,3,3.6,2.9,6c0,1.6-0.4,3.1-1.3,4.4c-0.9,1.2-2.1,2.2-3.5,2.7C788.7,199.9,790.4,200.8,791.6,202.2
			z M770.5,187.1v11.4h10c2.1,0.1,4.1-0.4,5.8-1.4c2.3-1.8,2.7-5.2,0.9-7.6c-0.3-0.3-0.6-0.6-0.9-0.9c-1.8-1.1-3.8-1.6-5.8-1.4
			H770.5z M787.8,211.5c1.5-1,2.3-2.7,2.2-4.5c0-3.9-2.8-5.9-8.5-5.9h-11V213h11C784.3,213,786.4,212.5,787.8,211.5L787.8,211.5z"/>
		<path class="st0" d="M803.1,186.3c-0.4-0.4-0.7-1-0.7-1.6c0-0.6,0.2-1.2,0.7-1.6c0.4-0.4,1-0.7,1.7-0.7c0.6,0,1.2,0.2,1.7,0.6
			c0.4,0.4,0.7,1,0.7,1.6c0,0.6-0.2,1.2-0.7,1.7C805.4,187.2,804,187.2,803.1,186.3L803.1,186.3z M803.1,192.1h3.2v23.6h-3.2V192.1z
			"/>
		<path class="st0" d="M818.1,182.4h3.2v33.2h-3.2V182.4z"/>
		<path class="st0" d="M833,182.4h3.2v33.2H833V182.4z"/>
		<path class="st0" d="M848,186.3c-0.4-0.4-0.7-1-0.7-1.6c0-0.6,0.2-1.2,0.7-1.6c0.9-0.9,2.4-0.9,3.3,0c0.4,0.4,0.7,1,0.7,1.6
			c0,1.3-1,2.3-2.3,2.3c0,0-0.1,0-0.1,0C849,187,848.4,186.7,848,186.3z M848,192.1h3.2v23.6H848V192.1z"/>
		<path class="st0" d="M882,194.5c1.7,1.7,2.6,4.2,2.6,7.5v13.7h-3.2v-13.4c0.1-2-0.5-4-1.8-5.6c-1.4-1.3-3.3-2-5.2-1.9
			c-2.2-0.1-4.4,0.7-6,2.3c-1.5,1.7-2.3,4-2.2,6.3v12.4H863v-23.6h3v4.3c0.9-1.4,2.1-2.6,3.6-3.3c1.7-0.8,3.5-1.2,5.3-1.2
			C877.5,191.8,880.1,192.7,882,194.5z"/>
		<path class="st0" d="M918,192.1v20.7c0,4-1,7-2.9,8.9s-4.9,2.9-8.8,2.9c-2.1,0-4.2-0.3-6.2-1c-1.8-0.5-3.4-1.4-4.8-2.7l1.6-2.4
			c1.2,1.1,2.6,1.9,4.1,2.4c1.6,0.6,3.4,0.9,5.1,0.9c3,0,5.2-0.7,6.6-2.1s2.1-3.6,2.1-6.5v-3c-1,1.5-2.3,2.6-3.9,3.4
			c-1.7,0.8-3.5,1.2-5.3,1.2c-2.1,0-4.2-0.5-6-1.4c-1.8-0.9-3.2-2.4-4.2-4.1c-2.1-3.7-2.1-8.2,0-11.9c1-1.7,2.5-3.1,4.2-4
			c1.9-1,3.9-1.5,6-1.4c1.9,0,3.7,0.4,5.4,1.2c1.6,0.8,2.9,2,3.9,3.5v-4.5L918,192.1z M910.6,210.9c1.3-0.7,2.4-1.8,3.2-3.1
			c0.8-1.4,1.2-2.9,1.1-4.5c0-1.6-0.4-3.1-1.1-4.5c-0.8-1.3-1.9-2.3-3.2-3.1c-2.9-1.4-6.3-1.4-9.2,0c-1.3,0.7-2.4,1.7-3.2,3
			c-1.5,2.8-1.5,6.2,0,9c0.7,1.3,1.8,2.4,3.2,3.1c1.4,0.8,3,1.1,4.6,1.1C907.6,212,909.2,211.6,910.6,210.9L910.6,210.9z"/>
		<path class="st0" d="M967.5,216.2l-4.3-4.5c-2.7,2.9-6.5,4.4-10.5,4.3c-1.9,0-3.7-0.3-5.4-1c-1.5-0.6-2.8-1.6-3.7-2.8
			c-0.9-1.2-1.4-2.7-1.3-4.1c0-1.8,0.6-3.6,1.8-5.1c1.7-1.9,3.8-3.5,6.1-4.7c-1.2-1.2-2.2-2.5-3.1-4c-0.6-1.1-0.9-2.3-0.8-3.5
			c-0.1-1.8,0.7-3.6,2.1-4.8c1.6-1.3,3.7-2,5.8-1.8c1.9-0.1,3.8,0.5,5.3,1.7c1.3,1.1,2.1,2.8,2,4.6c0,1.5-0.5,3-1.6,4.2
			c-1.6,1.7-3.4,3-5.4,4.1l8.6,8.9c1-1.9,1.7-3.9,2.1-6.1l2.6,0.8c-0.5,2.6-1.4,5-2.8,7.2l4.5,4.6L967.5,216.2z M961.3,209.8
			l-9.4-9.7c-1.9,1-3.6,2.3-5.1,3.8c-0.9,1.1-1.4,2.4-1.4,3.8c0,1.6,0.7,3.2,2.1,4.1c1.6,1.1,3.5,1.6,5.5,1.5
			C956.1,213.4,959.2,212.1,961.3,209.8z M950.4,187.6c-0.9,0.8-1.4,1.9-1.3,3.1c0,0.9,0.2,1.8,0.7,2.6c0.8,1.2,1.7,2.4,2.8,3.4
			c1.7-0.9,3.3-2,4.7-3.4c0.8-0.8,1.3-1.9,1.3-3.1c0-1.1-0.4-2.1-1.2-2.8c-0.9-0.8-2.1-1.1-3.3-1.1
			C952.7,186.4,951.4,186.8,950.4,187.6z"/>
		<path class="st0" d="M997.8,213.9c-2.4-1.3-4.5-3.3-5.8-5.7c-2.8-5.1-2.8-11.3,0-16.4c1.4-2.4,3.4-4.4,5.9-5.7
			c2.6-1.4,5.5-2.1,8.4-2.1c2.2,0,4.4,0.4,6.4,1.2c1.9,0.7,3.6,1.9,5,3.4l-2.1,2.1c-2.4-2.5-5.8-3.8-9.2-3.7c-2.4,0-4.7,0.6-6.8,1.7
			c-2,1.1-3.6,2.7-4.8,4.7c-2.3,4.1-2.3,9.1,0,13.3c1.1,2,2.8,3.6,4.8,4.7c2.1,1.1,4.4,1.7,6.8,1.7c3.5,0.1,6.8-1.3,9.2-3.8l2.1,2.1
			c-1.4,1.5-3.1,2.7-5,3.4c-2.1,0.8-4.3,1.2-6.5,1.2C1003.3,216,1000.4,215.3,997.8,213.9z"/>
		<path class="st0" d="M1029.4,214.4c-1.8-1-3.3-2.5-4.3-4.3c-2.1-3.9-2.1-8.5,0-12.4c1-1.8,2.5-3.3,4.3-4.3c3.8-2,8.4-2,12.2,0
			c1.8,1,3.3,2.5,4.3,4.3c2.1,3.9,2.1,8.5,0,12.4c-1,1.8-2.5,3.3-4.3,4.3C1037.9,216.4,1033.3,216.4,1029.4,214.4z M1040.1,211.9
			c1.3-0.8,2.4-1.9,3.1-3.3c1.5-3,1.5-6.6,0-9.6c-0.7-1.4-1.8-2.5-3.1-3.3c-2.8-1.5-6.2-1.5-9,0c-1.3,0.8-2.4,1.9-3.1,3.3
			c-1.5,3-1.5,6.6,0,9.6c0.7,1.4,1.8,2.5,3.1,3.3C1033.9,213.5,1037.3,213.5,1040.1,211.9z"/>
		<path class="st0" d="M1078.3,182.4v33.2h-3V211c-0.9,1.5-2.2,2.8-3.8,3.6c-1.6,0.8-3.5,1.3-5.3,1.3c-2.1,0-4.2-0.5-6-1.5
			c-1.8-1-3.2-2.5-4.2-4.3c-2-3.9-2-8.5,0-12.4c1-1.8,2.4-3.2,4.2-4.2c1.8-1,3.9-1.5,6-1.5c1.8,0,3.6,0.4,5.2,1.2
			c1.5,0.8,2.8,2,3.8,3.5v-14.1H1078.3z M1071,212c1.3-0.8,2.4-1.9,3.1-3.3c1.5-3,1.5-6.6,0-9.6c-0.7-1.4-1.8-2.5-3.1-3.3
			c-1.4-0.8-2.9-1.2-4.4-1.1c-1.6,0-3.1,0.4-4.5,1.1c-1.3,0.8-2.4,1.9-3.1,3.3c-1.5,3-1.5,6.6,0,9.6c0.7,1.3,1.8,2.5,3.1,3.3
			c1.4,0.8,2.9,1.2,4.5,1.1C1068.1,213.2,1069.6,212.8,1071,212z"/>
		<path class="st0" d="M1090.1,186.3c-0.4-0.4-0.7-1-0.7-1.6c0-0.6,0.2-1.2,0.7-1.6c0.4-0.4,1-0.7,1.7-0.7c0.6,0,1.2,0.2,1.7,0.6
			c0.4,0.4,0.7,1,0.7,1.6c0,1.3-1,2.3-2.3,2.4C1091.1,187,1090.5,186.8,1090.1,186.3L1090.1,186.3z M1090.2,192.1h3.2v23.6h-3.2
			V192.1z"/>
		<path class="st0" d="M1124.1,194.5c1.7,1.7,2.6,4.2,2.6,7.5v13.7h-3.2v-13.4c0.1-2-0.5-4-1.8-5.6c-1.4-1.3-3.3-2-5.2-1.9
			c-2.2-0.1-4.4,0.7-6,2.3c-1.5,1.7-2.3,4-2.2,6.3v12.4h-3.2v-23.6h3v4.3c0.9-1.4,2.1-2.6,3.6-3.3c1.7-0.8,3.5-1.2,5.3-1.2
			C1119.7,191.8,1122.2,192.7,1124.1,194.5z"/>
		<path class="st0" d="M1160.1,192.1v20.7c0,4-1,7-2.9,8.9s-4.9,2.9-8.8,2.9c-2.1,0-4.2-0.3-6.2-1c-1.8-0.5-3.4-1.4-4.8-2.7l1.6-2.4
			c1.2,1.1,2.6,1.9,4.1,2.4c1.6,0.6,3.4,0.9,5.1,0.9c3,0,5.2-0.7,6.6-2.1s2.1-3.6,2.1-6.5v-3c-1,1.5-2.3,2.6-3.9,3.4
			c-1.7,0.8-3.5,1.2-5.3,1.2c-2.1,0-4.2-0.5-6-1.4c-1.8-0.9-3.2-2.3-4.3-4.1c-2.1-3.7-2.1-8.2,0-11.9c1-1.7,2.5-3.1,4.2-4
			c1.9-1,3.9-1.5,6-1.4c1.9,0,3.7,0.4,5.4,1.2c1.6,0.8,2.9,2,3.9,3.5v-4.5L1160.1,192.1z M1152.7,210.9c1.3-0.7,2.4-1.8,3.2-3.1
			c0.8-1.4,1.2-2.9,1.1-4.5c0-1.6-0.4-3.1-1.1-4.5c-0.8-1.3-1.9-2.3-3.2-3.1c-2.9-1.4-6.3-1.4-9.2,0c-1.3,0.7-2.4,1.7-3.2,3
			c-1.5,2.8-1.5,6.2,0,9c0.7,1.3,1.8,2.4,3.2,3.1c1.4,0.7,3,1.1,4.6,1.1C1149.7,212,1151.3,211.6,1152.7,210.9L1152.7,210.9z"/>
		<path class="st0" d="M1189.2,214.8c-1.9-0.6-3.5-1.6-4.9-3l1.3-2.6c1.3,1.2,2.8,2.2,4.5,2.8c1.9,0.7,3.8,1,5.8,1
			c2.8,0,4.9-0.5,6.3-1.5c1.3-0.9,2.1-2.4,2.1-4c0.1-1.1-0.4-2.2-1.1-3c-0.8-0.8-1.7-1.4-2.8-1.7c-1.5-0.5-3-1-4.6-1.3
			c-1.9-0.5-3.8-1-5.6-1.7c-1.4-0.5-2.6-1.4-3.6-2.5c-1.1-1.3-1.6-2.9-1.5-4.6c0-1.5,0.4-3,1.3-4.3c0.9-1.4,2.3-2.5,3.8-3.1
			c2-0.8,4.2-1.2,6.4-1.2c1.8,0,3.5,0.2,5.3,0.7c1.6,0.4,3.1,1.1,4.4,2l-1.1,2.6c-1.3-0.9-2.7-1.6-4.2-2c-1.4-0.4-2.9-0.6-4.4-0.6
			c-2.7,0-4.8,0.5-6.2,1.6c-1.3,0.9-2.1,2.5-2.1,4.1c0,1.1,0.4,2.2,1.1,3c0.8,0.8,1.8,1.4,2.9,1.8c1.1,0.4,2.7,0.8,4.6,1.3
			c1.9,0.4,3.7,1,5.6,1.7c1.4,0.5,2.6,1.4,3.6,2.5c1,1.3,1.6,2.9,1.5,4.5c0,1.5-0.4,3-1.3,4.3c-1,1.4-2.3,2.5-3.9,3.1
			c-2.1,0.8-4.3,1.2-6.5,1.1C1193.6,215.8,1191.4,215.5,1189.2,214.8z"/>
		<path class="st0" d="M1237.5,204.9h-19.7c0.1,2.3,1.1,4.4,2.8,5.9c1.8,1.5,4.1,2.3,6.4,2.3c1.4,0,2.7-0.3,4-0.8
			c1.2-0.5,2.3-1.3,3.2-2.3l1.8,2.1c-1.1,1.3-2.4,2.2-3.9,2.9c-1.6,0.7-3.4,1-5.2,1c-2.2,0-4.4-0.5-6.4-1.5c-1.8-1-3.3-2.5-4.4-4.3
			c-1.1-1.9-1.6-4-1.6-6.2c0-2.2,0.5-4.3,1.5-6.2c0.9-1.8,2.4-3.2,4.1-4.3c1.8-1,3.8-1.5,5.9-1.5c2.1,0,4.1,0.5,5.8,1.5
			c1.7,1,3.1,2.5,4.1,4.2c1,1.9,1.5,4,1.5,6.2L1237.5,204.9z M1220.5,196.9c-1.6,1.5-2.5,3.5-2.6,5.7h16.7c-0.1-2.2-1.1-4.2-2.6-5.7
			C1228.7,194,1223.7,194,1220.5,196.9L1220.5,196.9z"/>
		<path class="st0" d="M1253.3,193.2c1.7-0.9,3.6-1.3,5.5-1.2v3.1h-0.8c-2.2-0.1-4.3,0.7-5.8,2.3c-1.5,1.8-2.2,4.1-2.1,6.4v12h-3.1
			v-23.6h3v4.6C1250.7,195.2,1251.8,194,1253.3,193.2z"/>
		<path class="st0" d="M1288.2,192.1l-10.4,23.6h-3.3l-10.4-23.6h3.3l8.8,20.1l8.9-20.1H1288.2z"/>
		<path class="st0" d="M1295.6,186.3c-0.4-0.4-0.7-1-0.7-1.6c0-0.6,0.2-1.2,0.7-1.6c0.4-0.4,1-0.7,1.7-0.7c0.6,0,1.2,0.2,1.7,0.6
			c0.4,0.4,0.7,1,0.7,1.6c0,0.6-0.2,1.2-0.7,1.7C1298,187.2,1296.5,187.2,1295.6,186.3L1295.6,186.3z M1295.6,192.1h3.2v23.6h-3.2
			V192.1z"/>
		<path class="st0" d="M1314.1,214.4c-1.8-1-3.3-2.5-4.3-4.3c-1.1-1.9-1.6-4-1.6-6.2c0-2.2,0.5-4.3,1.6-6.2c1-1.8,2.5-3.3,4.3-4.3
			c1.9-1,4.1-1.6,6.2-1.5c1.9,0,3.7,0.4,5.4,1.2c1.6,0.8,2.9,2,3.8,3.5l-2.4,1.6c-0.7-1.1-1.8-2-3-2.6c-1.2-0.6-2.5-0.9-3.9-0.9
			c-1.6,0-3.2,0.4-4.6,1.1c-1.4,0.8-2.5,1.9-3.2,3.3c-1.5,3-1.5,6.6,0,9.6c0.7,1.4,1.8,2.5,3.2,3.2c1.4,0.8,3,1.2,4.6,1.1
			c1.3,0,2.7-0.3,3.9-0.9c1.2-0.6,2.3-1.5,3-2.6l2.4,1.6c-0.9,1.5-2.2,2.7-3.8,3.5c-1.7,0.8-3.5,1.2-5.4,1.2
			C1318.2,215.9,1316,215.4,1314.1,214.4z"/>
		<path class="st0" d="M1358.7,204.9h-19.7c0.1,2.3,1.1,4.4,2.8,5.9c1.8,1.5,4.1,2.3,6.4,2.3c1.4,0,2.7-0.3,4-0.8
			c1.2-0.5,2.3-1.3,3.2-2.3l1.8,2.1c-1.1,1.3-2.4,2.2-3.9,2.9c-1.6,0.7-3.4,1-5.2,1c-2.2,0-4.4-0.5-6.4-1.5c-1.8-1-3.3-2.5-4.3-4.3
			c-1.1-1.9-1.6-4-1.6-6.2c0-2.2,0.5-4.3,1.5-6.2c1-1.8,2.4-3.2,4.1-4.3c3.6-2,8.1-2,11.7,0c1.7,1,3.1,2.5,4.1,4.2
			c1,1.9,1.5,4,1.5,6.2L1358.7,204.9z M1341.7,196.9c-1.6,1.5-2.5,3.5-2.6,5.7h16.7c-0.1-2.2-1.1-4.2-2.6-5.7
			C1349.9,194,1345,194,1341.7,196.9z"/>
		<path class="st0" d="M1369,215.1c-1.5-0.4-2.9-1.1-4.1-2.1l1.4-2.5c1.1,0.8,2.4,1.5,3.7,1.9c1.5,0.5,3.1,0.7,4.6,0.7
			c1.6,0.1,3.3-0.2,4.8-1c1-0.6,1.6-1.7,1.5-2.9c0-0.8-0.3-1.5-0.8-2c-0.6-0.5-1.4-0.9-2.1-1.1c-1.1-0.3-2.3-0.6-3.4-0.7
			c-1.6-0.3-3.1-0.6-4.6-1.1c-1.2-0.4-2.2-1-3-1.9c-0.9-1-1.3-2.4-1.2-3.7c0-1.9,0.9-3.7,2.5-4.8c2-1.4,4.4-2,6.8-1.9
			c1.5,0,3.1,0.2,4.6,0.6c1.3,0.3,2.6,0.9,3.8,1.6l-1.3,2.5c-2-1.4-4.5-2.1-6.9-2c-1.6-0.1-3.2,0.3-4.6,1.1c-1,0.6-1.6,1.7-1.5,2.8
			c0,0.8,0.3,1.6,0.9,2.1c0.6,0.6,1.4,1,2.2,1.2c1.2,0.3,2.4,0.6,3.6,0.8c1.5,0.3,3,0.6,4.5,1.1c1.1,0.3,2.1,1,2.9,1.8
			c0.9,1,1.3,2.3,1.2,3.6c0,2-0.9,3.8-2.6,4.9c-2.1,1.3-4.6,2-7.1,1.8C1372.6,215.9,1370.8,215.7,1369,215.1z"/>
	</g>
</g>
</svg>
